<?xml version="1.0" encoding="UTF-8"?>
<!DOCTYPE svg PUBLIC "-//W3C//DTD SVG 1.1//EN" "http://www.w3.org/Graphics/SVG/1.1/DTD/svg11.dtd">
<svg xmlns="http://www.w3.org/2000/svg" version="1.1" width="571px" height="437px" style="shape-rendering:geometricPrecision; text-rendering:geometricPrecision; image-rendering:optimizeQuality; fill-rule:evenodd; clip-rule:evenodd" xmlns:xlink="http://www.w3.org/1999/xlink">
<g><path style="opacity:0.625" fill="#bada96" d="M 552.5,53.5 C 552.784,55.4147 552.451,57.0813 551.5,58.5C 551.5,57.1667 551.5,55.8333 551.5,54.5C 535.256,54.8612 519.256,56.5278 503.5,59.5C 508.834,57.2236 514.501,55.7236 520.5,55C 530.201,54.5422 539.868,53.7088 549.5,52.5C 550.726,52.5195 551.726,52.8529 552.5,53.5 Z"/></g>
<g><path style="opacity:1" fill="#7dc976" d="M 551.5,58.5 C 549.412,60.3356 548.079,62.6689 547.5,65.5C 547.672,66.4916 547.338,67.1583 546.5,67.5C 542.829,69.8475 539.496,72.5142 536.5,75.5C 537.942,73.3635 539.109,71.0302 540,68.5C 544.081,66.2504 546.914,62.9171 548.5,58.5C 544.482,57.5477 540.648,58.2144 537,60.5C 532.362,59.9766 527.529,59.6433 522.5,59.5C 515.505,60.0663 508.505,60.5663 501.5,61C 497.835,64.0328 493.501,65.5328 488.5,65.5C 488.5,64.8333 488.5,64.1667 488.5,63.5C 492.475,64.1422 495.808,63.1422 498.5,60.5C 500.042,59.6993 501.708,59.366 503.5,59.5C 519.256,56.5278 535.256,54.8612 551.5,54.5C 551.5,55.8333 551.5,57.1667 551.5,58.5 Z"/></g>
<g><path style="opacity:1" fill="#6ec875" d="M 536.5,75.5 C 531.958,84.5721 527.125,93.5721 522,102.5C 521.51,103.793 521.343,105.127 521.5,106.5C 519.924,108.572 518.091,110.572 516,112.5C 515.51,113.793 515.343,115.127 515.5,116.5C 514.504,116.414 513.671,116.748 513,117.5C 511.878,119.42 511.044,121.42 510.5,123.5C 505.669,125.461 503.003,129.127 502.5,134.5C 501.039,133.314 499.705,133.314 498.5,134.5C 496.61,134.703 495.11,134.037 494,132.5C 491.999,136.573 489.166,139.907 485.5,142.5C 474.161,143.278 462.828,144.111 451.5,145C 450.027,145.71 449.36,146.876 449.5,148.5C 447.764,152.043 446.431,155.709 445.5,159.5C 444.835,161.698 444.168,164.031 443.5,166.5C 442.148,167.518 441.148,168.851 440.5,170.5C 439.52,167.914 439.187,165.247 439.5,162.5C 442.327,152.767 445.661,143.101 449.5,133.5C 449.5,133.167 449.5,132.833 449.5,132.5C 450.496,132.586 451.329,132.252 452,131.5C 453.932,126.435 456.432,121.768 459.5,117.5C 461.03,116.933 462.53,116.267 464,115.5C 465.992,112.017 468.158,108.684 470.5,105.5C 473.95,106.244 475.616,104.91 475.5,101.5C 477.901,100.951 480.235,100.118 482.5,99C 483.337,97.9887 483.67,96.8221 483.5,95.5C 487.604,95.1161 491.271,93.6161 494.5,91C 495.252,90.3292 495.586,89.4959 495.5,88.5C 499.986,87.2636 504.319,85.4303 508.5,83C 509.833,82.3333 509.833,81.6667 508.5,81C 506.288,80.2109 504.288,80.3775 502.5,81.5C 499.449,81.3645 496.449,81.6978 493.5,82.5C 489.947,84.4435 486.281,86.1102 482.5,87.5C 480.891,89.9402 478.557,91.1069 475.5,91C 473.915,93.0693 472.581,95.236 471.5,97.5C 469.5,97.5 467.5,97.5 465.5,97.5C 465.5,98.8333 465.5,100.167 465.5,101.5C 464.022,101.238 462.689,101.571 461.5,102.5C 460.66,103.735 459.66,104.735 458.5,105.5C 455.491,106.957 452.324,108.291 449,109.5C 448.003,106.331 448.67,103.664 451,101.5C 451.495,99.5273 451.662,97.5273 451.5,95.5C 451.5,94.1667 451.5,92.8333 451.5,91.5C 453.89,90.1092 455.557,88.1092 456.5,85.5C 458.997,84.8707 460.33,83.204 460.5,80.5C 464.294,79.9719 466.961,77.9719 468.5,74.5C 470.674,74.2503 472.341,73.2503 473.5,71.5C 475.848,71.4077 477.514,70.4077 478.5,68.5C 482.195,68.6498 485.528,67.6498 488.5,65.5C 493.501,65.5328 497.835,64.0328 501.5,61C 508.505,60.5663 515.505,60.0663 522.5,59.5C 527.529,59.6433 532.362,59.9766 537,60.5C 540.648,58.2144 544.482,57.5477 548.5,58.5C 546.914,62.9171 544.081,66.2504 540,68.5C 539.109,71.0302 537.942,73.3635 536.5,75.5 Z"/></g>
<g><path style="opacity:0.455" fill="#d7eeb1" d="M 552.5,53.5 C 553.478,53.811 554.145,54.4777 554.5,55.5C 552.917,59.407 550.584,62.7403 547.5,65.5C 548.079,62.6689 549.412,60.3356 551.5,58.5C 552.451,57.0813 552.784,55.4147 552.5,53.5 Z"/></g>
<g><path style="opacity:0.533" fill="#d1e5b2" d="M 498.5,60.5 C 495.808,63.1422 492.475,64.1422 488.5,63.5C 491.619,62.1301 494.952,61.1301 498.5,60.5 Z"/></g>
<g><path style="opacity:0.949" fill="#bbdb9c" d="M 488.5,63.5 C 488.5,64.1667 488.5,64.8333 488.5,65.5C 485.528,67.6498 482.195,68.6498 478.5,68.5C 481.515,66.3256 484.849,64.6589 488.5,63.5 Z"/></g>
<g><path style="opacity:0.525" fill="#c4e1aa" d="M 478.5,68.5 C 477.514,70.4077 475.848,71.4077 473.5,71.5C 474.659,69.7497 476.326,68.7497 478.5,68.5 Z"/></g>
<g><path style="opacity:0.173" fill="#d9efc8" d="M 473.5,71.5 C 472.341,73.2503 470.674,74.2503 468.5,74.5C 469.659,72.7497 471.326,71.7497 473.5,71.5 Z"/></g>
<g><path style="opacity:0.259" fill="#ceebad" d="M 546.5,67.5 C 543.547,71.625 540.381,75.625 537,79.5C 531.947,88.6825 526.78,97.6825 521.5,106.5C 521.343,105.127 521.51,103.793 522,102.5C 527.125,93.5721 531.958,84.5721 536.5,75.5C 539.496,72.5142 542.829,69.8475 546.5,67.5 Z"/></g>
<g><path style="opacity:1" fill="#c2e0a8" d="M 468.5,74.5 C 466.961,77.9719 464.294,79.9719 460.5,80.5C 462.8,78.016 465.467,76.016 468.5,74.5 Z"/></g>
<g><path style="opacity:0.314" fill="#d4e5c3" d="M 327.5,83.5 C 318.833,83.5 310.167,83.5 301.5,83.5C 301.5,85.1667 301.5,86.8333 301.5,88.5C 300.539,86.7354 300.205,84.7354 300.5,82.5C 309.682,82.1734 318.682,82.5067 327.5,83.5 Z"/></g>
<g><path style="opacity:0.988" fill="#b3de8f" d="M 502.5,81.5 C 504.288,80.3775 506.288,80.2109 508.5,81C 509.833,81.6667 509.833,82.3333 508.5,83C 504.319,85.4303 499.986,87.2636 495.5,88.5C 497.765,86.358 500.432,84.6913 503.5,83.5C 504.67,82.3061 504.337,81.6395 502.5,81.5 Z"/></g>
<g><path style="opacity:0.6" fill="#b9db9a" d="M 327.5,83.5 C 339.17,84.3058 350.503,86.3058 361.5,89.5C 361.5,89.8333 361.5,90.1667 361.5,90.5C 342.06,86.4135 322.394,84.4135 302.5,84.5C 302.402,86.5529 303.069,88.2196 304.5,89.5C 305.301,91.0418 305.634,92.7085 305.5,94.5C 303.178,93.1979 301.845,91.1979 301.5,88.5C 301.5,86.8333 301.5,85.1667 301.5,83.5C 310.167,83.5 318.833,83.5 327.5,83.5 Z"/></g>
<g><path style="opacity:0.937" fill="#c0e0a7" d="M 460.5,80.5 C 460.33,83.204 458.997,84.8707 456.5,85.5C 457.08,83.2512 458.413,81.5846 460.5,80.5 Z"/></g>
<g><path style="opacity:1" fill="#749e78" d="M 286.5,89.5 C 288.319,91.4716 289.319,93.8049 289.5,96.5C 290.833,96.5 292.167,96.5 293.5,96.5C 293.343,97.8734 293.51,99.2068 294,100.5C 294.278,99.5842 294.778,98.9175 295.5,98.5C 295.5,99.8333 295.5,101.167 295.5,102.5C 289.824,102.334 284.157,102.501 278.5,103C 271.432,103.884 264.432,105.051 257.5,106.5C 256.446,106.32 255.446,105.987 254.5,105.5C 251.041,106.305 248.208,107.972 246,110.5C 241.246,111.782 236.412,112.615 231.5,113C 232.641,113.741 232.641,114.575 231.5,115.5C 230.271,116.281 228.938,116.781 227.5,117C 228.056,117.383 228.389,117.883 228.5,118.5C 226.897,117.323 225.564,117.489 224.5,119C 221.173,119.61 217.839,120.11 214.5,120.5C 214.5,121.5 214.5,122.5 214.5,123.5C 209.935,125.329 205.769,127.995 202,131.5C 201.51,132.793 201.343,134.127 201.5,135.5C 200.833,135.5 200.167,135.5 199.5,135.5C 194.197,135.642 191.197,138.309 190.5,143.5C 185.751,144.733 181.918,147.399 179,151.5C 178.517,152.448 178.351,153.448 178.5,154.5C 177.5,154.5 176.5,154.5 175.5,154.5C 175.5,155.833 175.5,157.167 175.5,158.5C 172.167,162.5 168.833,166.5 165.5,170.5C 163.565,171.15 161.565,171.483 159.5,171.5C 159.5,174.5 159.5,177.5 159.5,180.5C 158.5,180.5 157.5,180.5 156.5,180.5C 154.727,184.45 152.893,188.45 151,192.5C 150.505,194.473 150.338,196.473 150.5,198.5C 150.5,199.167 150.5,199.833 150.5,200.5C 149.094,200.973 148.427,201.973 148.5,203.5C 148.125,205.698 147.458,207.698 146.5,209.5C 144.254,211.649 142.754,214.316 142,217.5C 141.386,222.015 140.552,226.348 139.5,230.5C 137.236,239.739 135.902,249.239 135.5,259C 137.693,263.215 138.026,267.548 136.5,272C 137.07,274.756 138.07,277.256 139.5,279.5C 139.343,280.873 139.51,282.207 140,283.5C 140.383,282.944 140.883,282.611 141.5,282.5C 141.993,284.806 142.326,287.139 142.5,289.5C 142.5,293.5 142.5,297.5 142.5,301.5C 143.5,301.5 144.5,301.5 145.5,301.5C 145.402,303.553 146.069,305.22 147.5,306.5C 147.5,307.167 147.5,307.833 147.5,308.5C 146.964,311.665 147.797,314.331 150,316.5C 150.597,319.958 151.597,323.291 153,326.5C 153.671,327.252 154.504,327.586 155.5,327.5C 159.459,334.066 163.459,340.733 167.5,347.5C 167.5,349.167 167.5,350.833 167.5,352.5C 168.5,352.5 169.5,352.5 170.5,352.5C 169.425,356.938 171.092,358.938 175.5,358.5C 175.34,360.199 175.506,361.866 176,363.5C 181,363.997 183.833,366.997 184.5,372.5C 186.735,372.795 188.735,372.461 190.5,371.5C 191.167,371.5 191.5,371.833 191.5,372.5C 191.888,374.685 192.888,376.518 194.5,378C 194.333,379.5 193.5,380.333 192,380.5C 188.482,378.159 184.648,376.492 180.5,375.5C 182.1,374.318 182.433,372.985 181.5,371.5C 179.997,370.948 178.331,370.948 176.5,371.5C 176.235,365.206 173.235,362.873 167.5,364.5C 167.167,364.5 166.833,364.5 166.5,364.5C 166.566,360.265 164.566,357.598 160.5,356.5C 159.379,353.043 157.046,351.043 153.5,350.5C 154.412,349.262 154.579,347.928 154,346.5C 150.986,344.3 148.819,341.467 147.5,338C 146.552,337.517 145.552,337.351 144.5,337.5C 144.5,336.5 144.5,335.5 144.5,334.5C 143.5,334.5 142.5,334.5 141.5,334.5C 139.333,332.17 137.666,329.503 136.5,326.5C 137.11,323.363 135.777,321.03 132.5,319.5C 130.688,317.539 129.688,315.206 129.5,312.5C 129.037,309.518 128.704,306.518 128.5,303.5C 127.5,303.5 126.5,303.5 125.5,303.5C 125.664,300.813 125.497,298.146 125,295.5C 122.468,288.404 120.302,281.238 118.5,274C 118.316,272.624 117.649,271.791 116.5,271.5C 116.026,257.404 116.026,243.237 116.5,229C 115.449,226.631 114.782,224.131 114.5,221.5C 116.181,217.399 116.848,213.065 116.5,208.5C 117.11,206.566 118.11,204.899 119.5,203.5C 122.749,194.849 125.582,185.849 128,176.5C 130.02,175.954 131.853,174.787 133.5,173C 130.843,169.437 131.343,166.27 135,163.5C 135.333,163.833 135.667,164.167 136,164.5C 136.341,160.157 138.007,156.49 141,153.5C 141.333,153.833 141.667,154.167 142,154.5C 142.894,151.608 144.56,149.274 147,147.5C 147.495,145.527 147.662,143.527 147.5,141.5C 153.408,138.946 158.408,135.113 162.5,130C 160.122,129.026 160.456,128.359 163.5,128C 168.249,123.093 173.582,119.093 179.5,116C 181.919,114.491 182.919,112.325 182.5,109.5C 182.833,109.5 183.167,109.5 183.5,109.5C 187.724,109.887 191.057,108.387 193.5,105C 202.942,101.303 212.275,97.303 221.5,93C 222.973,92.2904 223.64,91.1238 223.5,89.5C 232.115,90.0068 240.115,88.3402 247.5,84.5C 255.5,83.1667 263.5,83.1667 271.5,84.5C 272.613,87.4864 274.447,88.1531 277,86.5C 280.116,87.8118 283.282,88.8118 286.5,89.5 Z"/></g>
<g><path style="opacity:0.894" fill="#c7e4ac" d="M 456.5,85.5 C 455.557,88.1092 453.89,90.1092 451.5,91.5C 452.473,88.865 454.14,86.865 456.5,85.5 Z"/></g>
<g><path style="opacity:1" fill="#a8d795" d="M 502.5,81.5 C 496.235,83.1252 490.235,85.6252 484.5,89C 480.284,92.0561 475.951,94.8894 471.5,97.5C 472.581,95.236 473.915,93.0693 475.5,91C 478.557,91.1069 480.891,89.9402 482.5,87.5C 486.281,86.1102 489.947,84.4435 493.5,82.5C 496.449,81.6978 499.449,81.3645 502.5,81.5 Z"/></g>
<g><path style="opacity:0.929" fill="#b4d79f" d="M 495.5,88.5 C 495.586,89.4959 495.252,90.3292 494.5,91C 491.271,93.6161 487.604,95.1161 483.5,95.5C 487.131,92.679 491.131,90.3457 495.5,88.5 Z"/></g>
<g><path style="opacity:1" fill="#87c97b" d="M 304.5,89.5 C 305.822,89.33 306.989,89.6634 308,90.5C 308.688,94.0675 309.855,97.4009 311.5,100.5C 310.833,100.5 310.167,100.5 309.5,100.5C 309.5,100.167 309.5,99.8333 309.5,99.5C 308.855,97.1737 307.522,95.507 305.5,94.5C 305.634,92.7085 305.301,91.0418 304.5,89.5 Z"/></g>
<g><path style="opacity:1" fill="#6fc976" d="M 361.5,90.5 C 365.516,91.5124 369.516,92.5124 373.5,93.5C 373.47,94.4972 373.97,95.1639 375,95.5C 378.094,96.5655 381.26,97.2322 384.5,97.5C 385.791,97.2627 386.791,97.596 387.5,98.5C 387.511,100.017 388.177,101.184 389.5,102C 393.98,104.328 398.313,106.828 402.5,109.5C 402.833,109.5 403.167,109.5 403.5,109.5C 403.525,112.179 404.858,113.512 407.5,113.5C 408.096,115.745 409.096,117.745 410.5,119.5C 414.173,124.851 417.839,130.185 421.5,135.5C 421.332,139.658 421.998,143.658 423.5,147.5C 423.632,150.57 423.299,153.57 422.5,156.5C 422.167,156.5 421.833,156.5 421.5,156.5C 420.856,153.196 418.856,151.862 415.5,152.5C 414.833,149.833 413.167,148.167 410.5,147.5C 408,143.921 405.334,140.421 402.5,137C 398.778,134.81 395.111,132.644 391.5,130.5C 388.62,124.136 383.62,120.802 376.5,120.5C 373.487,116.665 369.487,114.999 364.5,115.5C 364.167,115.5 363.833,115.5 363.5,115.5C 361.584,113.023 358.917,112.023 355.5,112.5C 355.229,114.38 355.896,115.713 357.5,116.5C 360.872,117.788 363.872,119.788 366.5,122.5C 368.618,123.946 370.951,124.613 373.5,124.5C 374.048,127.084 375.715,128.084 378.5,127.5C 381.45,129.115 384.116,131.115 386.5,133.5C 387.455,135.746 388.122,138.079 388.5,140.5C 391.358,140.028 393.358,141.028 394.5,143.5C 394.357,145.262 394.691,146.929 395.5,148.5C 398.967,150.8 401.967,153.633 404.5,157C 404.355,157.772 404.022,158.439 403.5,159C 404.793,159.49 406.127,159.657 407.5,159.5C 406.875,163.584 408.375,166.584 412,168.5C 412.862,170.087 413.529,171.754 414,173.5C 414.667,172.833 415.333,172.167 416,171.5C 416.71,172.973 417.876,173.64 419.5,173.5C 421.69,174.929 423.024,176.929 423.5,179.5C 423.317,184.795 425.484,188.795 430,191.5C 430.167,192.333 430.333,193.167 430.5,194C 429.33,196.891 427.663,199.391 425.5,201.5C 424.209,199.051 423.209,196.384 422.5,193.5C 421.675,192.614 420.675,192.281 419.5,192.5C 407.087,192.813 394.753,192.479 382.5,191.5C 382.53,190.503 382.03,189.836 381,189.5C 377.553,188.511 374.053,187.844 370.5,187.5C 369.486,186.326 368.153,185.66 366.5,185.5C 365.833,185.5 365.5,185.167 365.5,184.5C 365.167,183.5 364.5,182.833 363.5,182.5C 357.364,173.589 351.197,164.589 345,155.5C 343.641,154.635 342.474,153.635 341.5,152.5C 341.5,152.167 341.5,151.833 341.5,151.5C 340.787,147.381 339.453,143.381 337.5,139.5C 334.819,137.473 333.153,134.807 332.5,131.5C 331.643,130.575 330.643,129.908 329.5,129.5C 324.725,119.007 318.725,109.34 311.5,100.5C 309.855,97.4009 308.688,94.0675 308,90.5C 306.989,89.6634 305.822,89.33 304.5,89.5C 303.069,88.2196 302.402,86.5529 302.5,84.5C 322.394,84.4135 342.06,86.4135 361.5,90.5 Z"/></g>
<g><path style="opacity:0.6" fill="#cce5b2" d="M 361.5,90.5 C 361.5,90.1667 361.5,89.8333 361.5,89.5C 365.222,90.0166 368.888,90.85 372.5,92C 373.056,92.3826 373.389,92.8826 373.5,93.5C 369.516,92.5124 365.516,91.5124 361.5,90.5 Z"/></g>
<g><path style="opacity:0.769" fill="#d3ecbe" d="M 305.5,94.5 C 307.522,95.507 308.855,97.1737 309.5,99.5C 307.478,98.493 306.145,96.8263 305.5,94.5 Z"/></g>
<g><path style="opacity:0.969" fill="#97b2a1" d="M 286.5,89.5 C 290.5,91.5 293.5,94.5 295.5,98.5C 294.778,98.9175 294.278,99.5842 294,100.5C 293.51,99.2068 293.343,97.8734 293.5,96.5C 292.167,96.5 290.833,96.5 289.5,96.5C 289.319,93.8049 288.319,91.4716 286.5,89.5 Z"/></g>
<g><path style="opacity:0.906" fill="#c6e6b0" d="M 451.5,91.5 C 451.5,92.8333 451.5,94.1667 451.5,95.5C 449.861,97.8061 447.861,99.8061 445.5,101.5C 447.318,98.0265 449.318,94.6931 451.5,91.5 Z"/></g>
<g><path style="opacity:0.525" fill="#bfe0a6" d="M 373.5,93.5 C 377.537,94.0653 381.203,95.3987 384.5,97.5C 381.26,97.2322 378.094,96.5655 375,95.5C 373.97,95.1639 373.47,94.4972 373.5,93.5 Z"/></g>
<g><path style="opacity:1" fill="#a6d993" d="M 471.5,97.5 C 470.421,99.543 468.754,100.876 466.5,101.5C 466.167,101.5 465.833,101.5 465.5,101.5C 465.5,100.167 465.5,98.8333 465.5,97.5C 467.5,97.5 469.5,97.5 471.5,97.5 Z"/></g>
<g><path style="opacity:1" fill="#add599" d="M 483.5,95.5 C 483.67,96.8221 483.337,97.9887 482.5,99C 480.235,100.118 477.901,100.951 475.5,101.5C 475.616,104.91 473.95,106.244 470.5,105.5C 474.489,101.817 478.822,98.4832 483.5,95.5 Z"/></g>
<g><path style="opacity:1" fill="#83a690" d="M 286.5,89.5 C 283.282,88.8118 280.116,87.8118 277,86.5C 274.447,88.1531 272.613,87.4864 271.5,84.5C 263.5,83.1667 255.5,83.1667 247.5,84.5C 240.115,88.3402 232.115,90.0068 223.5,89.5C 223.64,91.1238 222.973,92.2904 221.5,93C 212.275,97.303 202.942,101.303 193.5,105C 191.057,108.387 187.724,109.887 183.5,109.5C 183.953,108.542 184.619,107.708 185.5,107C 202.643,96.6029 220.976,88.6029 240.5,83C 251.833,81 263.167,81 274.5,83C 278.959,84.5242 282.959,86.6909 286.5,89.5 Z"/></g>
<g><path style="opacity:0.871" fill="#c3e6a8" d="M 387.5,98.5 C 392.018,101.505 396.684,104.338 401.5,107C 402.252,107.671 402.586,108.504 402.5,109.5C 398.313,106.828 393.98,104.328 389.5,102C 388.177,101.184 387.511,100.017 387.5,98.5 Z"/></g>
<g><path style="opacity:0.992" fill="#aedb9c" d="M 465.5,101.5 C 465.833,101.5 466.167,101.5 466.5,101.5C 462.866,104.984 458.866,107.984 454.5,110.5C 455.474,108.52 456.807,106.853 458.5,105.5C 459.66,104.735 460.66,103.735 461.5,102.5C 462.689,101.571 464.022,101.238 465.5,101.5 Z"/></g>
<g><path style="opacity:1" fill="#89a891" d="M 295.5,98.5 C 298.734,99.9937 299.067,101.827 296.5,104C 285.715,104.187 275.049,105.354 264.5,107.5C 261.219,107.42 258.219,108.087 255.5,109.5C 246.243,111.919 237.243,114.919 228.5,118.5C 228.389,117.883 228.056,117.383 227.5,117C 228.938,116.781 230.271,116.281 231.5,115.5C 232.641,114.575 232.641,113.741 231.5,113C 236.412,112.615 241.246,111.782 246,110.5C 248.208,107.972 251.041,106.305 254.5,105.5C 255.446,105.987 256.446,106.32 257.5,106.5C 264.432,105.051 271.432,103.884 278.5,103C 284.157,102.501 289.824,102.334 295.5,102.5C 295.5,101.167 295.5,99.8333 295.5,98.5 Z"/></g>
<g><path style="opacity:0.055" fill="#d6e8e3" d="M 264.5,107.5 C 261.781,108.913 258.781,109.58 255.5,109.5C 258.219,108.087 261.219,107.42 264.5,107.5 Z"/></g>
<g><path style="opacity:0.584" fill="#ceebb0" d="M 309.5,100.5 C 310.167,100.5 310.833,100.5 311.5,100.5C 318.725,109.34 324.725,119.007 329.5,129.5C 329.5,130.5 329.5,131.5 329.5,132.5C 323.861,121.23 317.195,110.563 309.5,100.5 Z"/></g>
<g><path style="opacity:1" fill="#84ca74" d="M 451.5,95.5 C 451.662,97.5273 451.495,99.5273 451,101.5C 448.67,103.664 448.003,106.331 449,109.5C 452.324,108.291 455.491,106.957 458.5,105.5C 456.807,106.853 455.474,108.52 454.5,110.5C 454.5,110.833 454.5,111.167 454.5,111.5C 452.821,111.285 451.821,111.952 451.5,113.5C 449.678,113.831 448.011,114.498 446.5,115.5C 445.252,114.666 444.585,113.333 444.5,111.5C 444.837,108.824 445.17,106.157 445.5,103.5C 445.5,102.833 445.5,102.167 445.5,101.5C 447.861,99.8061 449.861,97.8061 451.5,95.5 Z"/></g>
<g><path style="opacity:0.204" fill="#d8edca" d="M 454.5,111.5 C 453.71,112.401 452.71,113.068 451.5,113.5C 451.821,111.952 452.821,111.285 454.5,111.5 Z"/></g>
<g><path style="opacity:0.973" fill="#cee8b8" d="M 403.5,109.5 C 405.167,110.5 406.5,111.833 407.5,113.5C 404.858,113.512 403.525,112.179 403.5,109.5 Z"/></g>
<g><path style="opacity:0.702" fill="#d3edb0" d="M 521.5,106.5 C 520.502,110.505 518.502,113.839 515.5,116.5C 515.343,115.127 515.51,113.793 516,112.5C 518.091,110.572 519.924,108.572 521.5,106.5 Z"/></g>
<g><path style="opacity:0.255" fill="#bae58b" d="M 363.5,115.5 C 362.833,115.5 362.167,115.5 361.5,115.5C 360.833,114.167 360.167,114.167 359.5,115.5C 359.158,116.338 358.492,116.672 357.5,116.5C 355.896,115.713 355.229,114.38 355.5,112.5C 358.917,112.023 361.584,113.023 363.5,115.5 Z"/></g>
<g><path style="opacity:0.29" fill="#cfe4c0" d="M 463.5,111.5 C 463.167,113.833 461.833,115.167 459.5,115.5C 460.5,113.833 461.833,112.5 463.5,111.5 Z"/></g>
<g><path style="opacity:0.769" fill="#cbe49b" d="M 445.5,103.5 C 445.17,106.157 444.837,108.824 444.5,111.5C 444.585,113.333 445.252,114.666 446.5,115.5C 445.791,116.404 444.791,116.737 443.5,116.5C 443.5,114.5 443.5,112.5 443.5,110.5C 443.41,107.848 444.076,105.515 445.5,103.5 Z"/></g>
<g><path style="opacity:1" fill="#a5d591" d="M 470.5,105.5 C 468.158,108.684 465.992,112.017 464,115.5C 462.53,116.267 461.03,116.933 459.5,117.5C 457.861,119.806 455.861,121.806 453.5,123.5C 455.122,120.545 457.122,117.878 459.5,115.5C 461.833,115.167 463.167,113.833 463.5,111.5C 465.193,108.81 467.527,106.81 470.5,105.5 Z"/></g>
<g><path style="opacity:0.808" fill="#b9e3a3" d="M 364.5,115.5 C 369.487,114.999 373.487,116.665 376.5,120.5C 372.458,118.823 368.458,117.156 364.5,115.5 Z"/></g>
<g><path style="opacity:0.757" fill="#c8e9b1" d="M 407.5,113.5 C 410.2,115.234 412.2,117.568 413.5,120.5C 412.391,120.443 411.391,120.11 410.5,119.5C 409.096,117.745 408.096,115.745 407.5,113.5 Z"/></g>
<g><path style="opacity:0.275" fill="#eaf4ca" d="M 443.5,110.5 C 443.5,112.5 443.5,114.5 443.5,116.5C 444.791,116.737 445.791,116.404 446.5,115.5C 448.011,114.498 449.678,113.831 451.5,113.5C 449.416,116.706 446.416,118.039 442.5,117.5C 442.198,114.941 442.532,112.607 443.5,110.5 Z"/></g>
<g><path style="opacity:0.741" fill="#c3e7a7" d="M 515.5,116.5 C 514.99,119.674 513.323,122.008 510.5,123.5C 511.044,121.42 511.878,119.42 513,117.5C 513.671,116.748 514.504,116.414 515.5,116.5 Z"/></g>
<g><path style="opacity:1" fill="#87a88f" d="M 228.5,118.5 C 223.219,122.146 217.552,125.313 211.5,128C 207.92,130.277 204.586,132.777 201.5,135.5C 201.343,134.127 201.51,132.793 202,131.5C 205.769,127.995 209.935,125.329 214.5,123.5C 214.5,122.5 214.5,121.5 214.5,120.5C 217.839,120.11 221.173,119.61 224.5,119C 225.564,117.489 226.897,117.323 228.5,118.5 Z"/></g>
<g><path style="opacity:1" fill="#87a691" d="M 182.5,109.5 C 182.919,112.325 181.919,114.491 179.5,116C 173.582,119.093 168.249,123.093 163.5,128C 160.456,128.359 160.122,129.026 162.5,130C 158.408,135.113 153.408,138.946 147.5,141.5C 157.291,128.705 168.958,118.039 182.5,109.5 Z"/></g>
<g><path style="opacity:1" fill="#abd793" d="M 359.5,115.5 C 360.167,115.5 360.833,115.5 361.5,115.5C 365.5,118.5 369.5,121.5 373.5,124.5C 370.951,124.613 368.618,123.946 366.5,122.5C 363.872,119.788 360.872,117.788 357.5,116.5C 358.492,116.672 359.158,116.338 359.5,115.5 Z"/></g>
<g><path style="opacity:1" fill="#aad797" d="M 376.5,120.5 C 383.62,120.802 388.62,124.136 391.5,130.5C 388.467,128.984 385.8,126.984 383.5,124.5C 383.027,123.094 382.027,122.427 380.5,122.5C 378.847,122.34 377.514,121.674 376.5,120.5 Z"/></g>
<g><path style="opacity:0.098" fill="#def5cc" d="M 380.5,122.5 C 382.027,122.427 383.027,123.094 383.5,124.5C 381.973,124.573 380.973,123.906 380.5,122.5 Z"/></g>
<g><path style="opacity:0.961" fill="#bae09d" d="M 410.5,119.5 C 411.391,120.11 412.391,120.443 413.5,120.5C 416.997,125.013 419.663,130.013 421.5,135.5C 417.839,130.185 414.173,124.851 410.5,119.5 Z"/></g>
<g><path style="opacity:0.765" fill="#badca5" d="M 373.5,124.5 C 375.434,125.11 377.101,126.11 378.5,127.5C 375.715,128.084 374.048,127.084 373.5,124.5 Z"/></g>
<g><path style="opacity:0.824" fill="#c4e2ae" d="M 453.5,123.5 C 453.378,126.292 452.044,128.292 449.5,129.5C 450.34,127.147 451.674,125.147 453.5,123.5 Z"/></g>
<g><path style="opacity:1" fill="#8ac97b" d="M 459.5,117.5 C 456.432,121.768 453.932,126.435 452,131.5C 451.329,132.252 450.496,132.586 449.5,132.5C 449.5,131.5 449.5,130.5 449.5,129.5C 452.044,128.292 453.378,126.292 453.5,123.5C 455.861,121.806 457.861,119.806 459.5,117.5 Z"/></g>
<g><path style="opacity:0.8" fill="#bae1a5" d="M 510.5,123.5 C 508.565,127.707 505.898,131.373 502.5,134.5C 503.003,129.127 505.669,125.461 510.5,123.5 Z"/></g>
<g><path style="opacity:1" fill="#b1de9f" d="M 502.5,134.5 C 500.54,136.156 498.54,137.823 496.5,139.5C 497.167,137.833 497.833,136.167 498.5,134.5C 499.705,133.314 501.039,133.314 502.5,134.5 Z"/></g>
<g><path style="opacity:1" fill="#85a58e" d="M 199.5,135.5 C 197.064,138.871 194.064,141.538 190.5,143.5C 191.197,138.309 194.197,135.642 199.5,135.5 Z"/></g>
<g><path style="opacity:1" fill="#7ec972" d="M 498.5,134.5 C 497.833,136.167 497.167,137.833 496.5,139.5C 492.133,142.012 487.466,144.012 482.5,145.5C 472.494,145.334 462.494,145.5 452.5,146C 451.627,147.045 450.627,147.878 449.5,148.5C 449.36,146.876 450.027,145.71 451.5,145C 462.828,144.111 474.161,143.278 485.5,142.5C 489.166,139.907 491.999,136.573 494,132.5C 495.11,134.037 496.61,134.703 498.5,134.5 Z"/></g>
<g><path style="opacity:1" fill="#83c975" d="M 329.5,129.5 C 330.643,129.908 331.643,130.575 332.5,131.5C 333.153,134.807 334.819,137.473 337.5,139.5C 339.453,143.381 340.787,147.381 341.5,151.5C 338.219,144.767 334.219,138.434 329.5,132.5C 329.5,131.5 329.5,130.5 329.5,129.5 Z"/></g>
<g><path style="opacity:1" fill="#b1dd9e" d="M 386.5,133.5 C 393.909,138.909 400.242,145.242 405.5,152.5C 401.641,149.737 397.974,146.737 394.5,143.5C 393.358,141.028 391.358,140.028 388.5,140.5C 388.122,138.079 387.455,135.746 386.5,133.5 Z"/></g>
<g><path style="opacity:0.976" fill="#b9e0a7" d="M 391.5,130.5 C 395.111,132.644 398.778,134.81 402.5,137C 405.334,140.421 408,143.921 410.5,147.5C 404.428,141.616 398.094,135.949 391.5,130.5 Z"/></g>
<g><path style="opacity:1" fill="#85c973" d="M 449.5,133.5 C 445.661,143.101 442.327,152.767 439.5,162.5C 439.5,159.167 439.5,155.833 439.5,152.5C 439.5,152.167 439.5,151.833 439.5,151.5C 440.315,150.571 441.148,149.571 442,148.5C 443.074,144.695 444.408,141.029 446,137.5C 446.949,135.907 448.115,134.574 449.5,133.5 Z"/></g>
<g><path style="opacity:0.871" fill="#bfe292" d="M 421.5,135.5 C 423.651,139.497 424.984,143.83 425.5,148.5C 425.5,150.167 425.5,151.833 425.5,153.5C 424.833,151.5 424.167,149.5 423.5,147.5C 421.998,143.658 421.332,139.658 421.5,135.5 Z"/></g>
<g><path style="opacity:0.906" fill="#c4e2a8" d="M 449.5,129.5 C 449.5,130.5 449.5,131.5 449.5,132.5C 449.5,132.833 449.5,133.167 449.5,133.5C 448.115,134.574 446.949,135.907 446,137.5C 444.408,141.029 443.074,144.695 442,148.5C 441.148,149.571 440.315,150.571 439.5,151.5C 441.246,143.349 444.579,136.015 449.5,129.5 Z"/></g>
<g><path style="opacity:0.887" fill="#b9db8e" d="M 482.5,145.5 C 472.833,146.167 463.167,146.833 453.5,147.5C 452.143,148.59 451.143,149.924 450.5,151.5C 448.552,153.32 447.552,155.654 447.5,158.5C 447.5,158.833 447.5,159.167 447.5,159.5C 446.833,159.5 446.167,159.5 445.5,159.5C 446.431,155.709 447.764,152.043 449.5,148.5C 450.627,147.878 451.627,147.045 452.5,146C 462.494,145.5 472.494,145.334 482.5,145.5 Z"/></g>
<g><path style="opacity:0.306" fill="#e3f4c5" d="M 496.5,139.5 C 492.852,142.997 488.519,145.497 483.5,147C 473.506,147.5 463.506,147.666 453.5,147.5C 463.167,146.833 472.833,146.167 482.5,145.5C 487.466,144.012 492.133,142.012 496.5,139.5 Z"/></g>
<g><path style="opacity:0.184" fill="#c5dece" d="M 307.5,147.5 C 310.228,147.171 312.562,147.837 314.5,149.5C 311.933,149.279 309.599,148.612 307.5,147.5 Z"/></g>
<g><path style="opacity:0.612" fill="#d0ebb2" d="M 329.5,132.5 C 334.219,138.434 338.219,144.767 341.5,151.5C 341.5,151.833 341.5,152.167 341.5,152.5C 341.5,152.833 341.5,153.167 341.5,153.5C 340.833,153.167 340.167,152.833 339.5,152.5C 335.622,146.078 332.289,139.411 329.5,132.5 Z"/></g>
<g><path style="opacity:0.565" fill="#dbedc7" d="M 410.5,147.5 C 413.167,148.167 414.833,149.833 415.5,152.5C 413.5,151.167 411.833,149.5 410.5,147.5 Z"/></g>
<g><path style="opacity:0.545" fill="#91ab96" d="M 190.5,143.5 C 186.826,147.507 182.826,151.174 178.5,154.5C 178.351,153.448 178.517,152.448 179,151.5C 181.918,147.399 185.751,144.733 190.5,143.5 Z"/></g>
<g><path style="opacity:0.051" fill="#dfeeee" d="M 253.5,149.5 C 253.011,150.995 252.345,152.329 251.5,153.5C 251.157,151.517 251.824,150.183 253.5,149.5 Z"/></g>
<g><path style="opacity:0.961" fill="#c0e5ad" d="M 415.5,152.5 C 418.856,151.862 420.856,153.196 421.5,156.5C 419.223,155.551 417.223,154.218 415.5,152.5 Z"/></g>
<g><path style="opacity:1" fill="#739e78" d="M 255.5,150.5 C 270.081,149.954 284.581,150.621 299,152.5C 304.482,150.896 309.982,150.562 315.5,151.5C 315.759,155.24 315.426,158.906 314.5,162.5C 315,163.5 315.5,164.5 316,165.5C 316.333,176.833 316.667,188.167 317,199.5C 316.947,202.675 317.78,205.342 319.5,207.5C 324.517,209.602 329.85,210.602 335.5,210.5C 338.625,211.479 341.958,211.813 345.5,211.5C 352.655,212.329 359.989,212.829 367.5,213C 371.167,214 374.833,215 378.5,216C 379.289,218.365 380.456,220.532 382,222.5C 382.667,235.833 382.667,249.167 382,262.5C 380.024,263.543 379.524,264.877 380.5,266.5C 379.926,269.177 379.259,271.843 378.5,274.5C 367.681,275.832 356.681,276.832 345.5,277.5C 336.833,277.5 328.167,277.5 319.5,277.5C 317.955,278.23 317.122,279.563 317,281.5C 316.588,300.187 315.755,318.854 314.5,337.5C 310.136,338.394 305.803,339.394 301.5,340.5C 286.158,340.477 270.825,340.144 255.5,339.5C 253.602,332.665 252.436,325.665 252,318.5C 251.178,305.258 251.345,292.091 252.5,279C 251.756,277.961 250.756,277.461 249.5,277.5C 249.585,276.005 248.919,275.005 247.5,274.5C 228.941,277.881 210.275,278.381 191.5,276C 189.298,274.612 187.298,273.112 185.5,271.5C 185.338,255.152 185.671,238.819 186.5,222.5C 188.602,220.807 190.268,218.641 191.5,216C 204.944,215.31 218.611,214.143 232.5,212.5C 232.5,213.5 232.5,214.5 232.5,215.5C 235.602,215.846 238.435,215.179 241,213.5C 241.667,214.167 242.333,214.833 243,215.5C 246.982,216.413 251.149,216.413 255.5,215.5C 254.619,214.029 253.286,213.196 251.5,213C 252.574,212.261 253.241,211.261 253.5,210C 252.391,203.538 252.225,197.038 253,190.5C 253.21,187.766 254.044,185.266 255.5,183C 254.21,172.39 254.21,161.556 255.5,150.5 Z"/></g>
<g><path style="opacity:0.773" fill="#a4b9aa" d="M 178.5,154.5 C 177.878,156.122 176.878,157.455 175.5,158.5C 175.5,157.167 175.5,155.833 175.5,154.5C 176.5,154.5 177.5,154.5 178.5,154.5 Z"/></g>
<g><path style="opacity:0.173" fill="#eaf6de" d="M 339.5,152.5 C 340.167,152.833 340.833,153.167 341.5,153.5C 341.557,154.609 341.89,155.609 342.5,156.5C 343.11,157.391 343.443,158.391 343.5,159.5C 341.412,157.664 340.079,155.331 339.5,152.5 Z"/></g>
<g><path style="opacity:1" fill="#99cc64" d="M 423.5,147.5 C 424.167,149.5 424.833,151.5 425.5,153.5C 425.5,154.5 425.5,155.5 425.5,156.5C 424.5,156.5 423.5,156.5 422.5,156.5C 423.299,153.57 423.632,150.57 423.5,147.5 Z"/></g>
<g><path style="opacity:0.675" fill="#e2f1bc" d="M 425.5,148.5 C 426.266,150.684 426.933,153.018 427.5,155.5C 425.867,159.008 423.867,159.341 421.5,156.5C 421.833,156.5 422.167,156.5 422.5,156.5C 423.5,156.5 424.5,156.5 425.5,156.5C 425.5,155.5 425.5,154.5 425.5,153.5C 425.5,151.833 425.5,150.167 425.5,148.5 Z"/></g>
<g><path style="opacity:0.859" fill="#c8eab2" d="M 405.5,152.5 C 407.914,153.911 409.581,155.911 410.5,158.5C 407.764,157.427 406.097,155.427 405.5,152.5 Z"/></g>
<g><path style="opacity:0.227" fill="#e9f6c8" d="M 450.5,151.5 C 450.065,154.157 449.065,156.491 447.5,158.5C 447.552,155.654 448.552,153.32 450.5,151.5 Z"/></g>
<g><path style="opacity:1" fill="#86ca78" d="M 341.5,152.5 C 342.474,153.635 343.641,154.635 345,155.5C 351.197,164.589 357.364,173.589 363.5,182.5C 363.167,182.5 362.833,182.5 362.5,182.5C 361.5,182.167 360.833,181.5 360.5,180.5C 359.223,178.05 357.723,175.717 356,173.5C 354.89,171.963 353.39,171.297 351.5,171.5C 349.645,165.682 346.645,160.682 342.5,156.5C 341.89,155.609 341.557,154.609 341.5,153.5C 341.5,153.167 341.5,152.833 341.5,152.5 Z"/></g>
<g><path style="opacity:0.824" fill="#c5e6b0" d="M 342.5,156.5 C 346.645,160.682 349.645,165.682 351.5,171.5C 348.35,167.881 345.684,163.881 343.5,159.5C 343.443,158.391 343.11,157.391 342.5,156.5 Z"/></g>
<g><path style="opacity:0.498" fill="#e6f7d4" d="M 445.5,159.5 C 446.167,159.5 446.833,159.5 447.5,159.5C 446.935,161.952 446.268,164.285 445.5,166.5C 445.5,164.167 445.5,161.833 445.5,159.5 Z"/></g>
<g><path style="opacity:0.329" fill="#d9e8cd" d="M 412.5,160.5 C 413.906,160.973 414.573,161.973 414.5,163.5C 413.094,163.027 412.427,162.027 412.5,160.5 Z"/></g>
<g><path style="opacity:0.996" fill="#82a78f" d="M 307.5,147.5 C 309.599,148.612 311.933,149.279 314.5,149.5C 317.762,151.925 319.262,155.258 319,159.5C 319.5,175.497 319.667,191.497 319.5,207.5C 317.78,205.342 316.947,202.675 317,199.5C 316.667,188.167 316.333,176.833 316,165.5C 315.5,164.5 315,163.5 314.5,162.5C 315.426,158.906 315.759,155.24 315.5,151.5C 309.982,150.562 304.482,150.896 299,152.5C 284.581,150.621 270.081,149.954 255.5,150.5C 255.158,149.662 254.492,149.328 253.5,149.5C 257.233,148.023 261.233,147.189 265.5,147C 279.575,146.186 293.575,146.352 307.5,147.5 Z"/></g>
<g><path style="opacity:0.996" fill="#bbdd8b" d="M 439.5,152.5 C 439.5,155.833 439.5,159.167 439.5,162.5C 438.518,165.962 438.185,169.629 438.5,173.5C 439.5,173.5 440.5,173.5 441.5,173.5C 441.5,174.5 441.5,175.5 441.5,176.5C 440.167,176.5 438.833,176.5 437.5,176.5C 437.5,170.5 437.5,164.5 437.5,158.5C 437.595,156.214 438.262,154.214 439.5,152.5 Z"/></g>
<g><path style="opacity:0.71" fill="#8caba7" d="M 253.5,149.5 C 254.492,149.328 255.158,149.662 255.5,150.5C 254.442,151.6 253.608,152.934 253,154.5C 252.412,169.672 251.578,184.672 250.5,199.5C 250.727,184.164 251.06,168.83 251.5,153.5C 252.345,152.329 253.011,150.995 253.5,149.5 Z"/></g>
<g><path style="opacity:1" fill="#7dca74" d="M 394.5,143.5 C 397.974,146.737 401.641,149.737 405.5,152.5C 406.097,155.427 407.764,157.427 410.5,158.5C 411.5,158.833 412.167,159.5 412.5,160.5C 412.427,162.027 413.094,163.027 414.5,163.5C 414.5,164.167 414.833,164.5 415.5,164.5C 415.67,167.204 417.003,168.871 419.5,169.5C 419.5,169.833 419.5,170.167 419.5,170.5C 419.5,171.5 419.5,172.5 419.5,173.5C 417.876,173.64 416.71,172.973 416,171.5C 415.333,172.167 414.667,172.833 414,173.5C 413.529,171.754 412.862,170.087 412,168.5C 408.375,166.584 406.875,163.584 407.5,159.5C 406.127,159.657 404.793,159.49 403.5,159C 404.022,158.439 404.355,157.772 404.5,157C 401.967,153.633 398.967,150.8 395.5,148.5C 394.691,146.929 394.357,145.262 394.5,143.5 Z"/></g>
<g><path style="opacity:0.678" fill="#d2ecb4" d="M 415.5,164.5 C 417.063,165.945 418.396,167.611 419.5,169.5C 417.003,168.871 415.67,167.204 415.5,164.5 Z"/></g>
<g><path style="opacity:1" fill="#9ad378" d="M 445.5,159.5 C 445.5,161.833 445.5,164.167 445.5,166.5C 445.5,167.167 445.5,167.833 445.5,168.5C 443.478,169.507 442.145,171.174 441.5,173.5C 440.5,173.5 439.5,173.5 438.5,173.5C 438.185,169.629 438.518,165.962 439.5,162.5C 439.187,165.247 439.52,167.914 440.5,170.5C 441.148,168.851 442.148,167.518 443.5,166.5C 444.168,164.031 444.835,161.698 445.5,159.5 Z"/></g>
<g><path style="opacity:0.371" fill="#dbe6b7" d="M 437.5,158.5 C 437.5,164.5 437.5,170.5 437.5,176.5C 438.833,176.5 440.167,176.5 441.5,176.5C 440.365,178.213 438.698,178.88 436.5,178.5C 436.176,171.646 436.509,164.979 437.5,158.5 Z"/></g>
<g><path style="opacity:0.604" fill="#dff1ba" d="M 445.5,168.5 C 444.674,171.485 443.341,174.151 441.5,176.5C 441.5,175.5 441.5,174.5 441.5,173.5C 442.145,171.174 443.478,169.507 445.5,168.5 Z"/></g>
<g><path style="opacity:1" fill="#87aa92" d="M 165.5,170.5 C 163.89,174.1 161.89,177.434 159.5,180.5C 159.5,177.5 159.5,174.5 159.5,171.5C 161.565,171.483 163.565,171.15 165.5,170.5 Z"/></g>
<g><path style="opacity:1" fill="#86a78f" d="M 147.5,141.5 C 147.662,143.527 147.495,145.527 147,147.5C 144.56,149.274 142.894,151.608 142,154.5C 141.667,154.167 141.333,153.833 141,153.5C 138.007,156.49 136.341,160.157 136,164.5C 135.667,164.167 135.333,163.833 135,163.5C 131.343,166.27 130.843,169.437 133.5,173C 131.853,174.787 130.02,175.954 128,176.5C 125.582,185.849 122.749,194.849 119.5,203.5C 119.5,200.833 119.5,198.167 119.5,195.5C 124.983,175.392 134.316,157.392 147.5,141.5 Z"/></g>
<g><path style="opacity:0.816" fill="#c1e2ac" d="M 351.5,171.5 C 353.39,171.297 354.89,171.963 356,173.5C 357.723,175.717 359.223,178.05 360.5,180.5C 359.761,180.631 359.094,180.464 358.5,180C 356.332,177.002 353.999,174.169 351.5,171.5 Z"/></g>
<g><path style="opacity:0.855" fill="#c7e8a5" d="M 419.5,170.5 C 422.579,173.65 424.913,177.317 426.5,181.5C 425.5,180.833 424.5,180.167 423.5,179.5C 423.024,176.929 421.69,174.929 419.5,173.5C 419.5,172.5 419.5,171.5 419.5,170.5 Z"/></g>
<g><path style="opacity:0.365" fill="#daf2cd" d="M 362.5,182.5 C 362.833,182.5 363.167,182.5 363.5,182.5C 364.5,182.833 365.167,183.5 365.5,184.5C 363.973,184.573 362.973,183.906 362.5,182.5 Z"/></g>
<g><path style="opacity:0.263" fill="#e0f2c0" d="M 366.5,185.5 C 368.153,185.66 369.486,186.326 370.5,187.5C 368.62,187.771 367.287,187.104 366.5,185.5 Z"/></g>
<g><path style="opacity:0.925" fill="#d3edb6" d="M 427.5,182.5 C 428.34,185.361 429.673,188.027 431.5,190.5C 428.107,188.927 426.774,186.26 427.5,182.5 Z"/></g>
<g><path style="opacity:0.831" fill="#d1ebaa" d="M 370.5,187.5 C 374.053,187.844 377.553,188.511 381,189.5C 382.03,189.836 382.53,190.503 382.5,191.5C 377.996,191.381 373.996,190.048 370.5,187.5 Z"/></g>
<g><path style="opacity:0.894" fill="#97b29d" d="M 159.5,180.5 C 157.008,186.818 154.008,192.818 150.5,198.5C 150.338,196.473 150.505,194.473 151,192.5C 152.893,188.45 154.727,184.45 156.5,180.5C 157.5,180.5 158.5,180.5 159.5,180.5 Z"/></g>
<g><path style="opacity:0.839" fill="#c5e4a6" d="M 431.5,191.5 C 433.592,194.088 434.925,197.088 435.5,200.5C 432.835,198.165 431.502,195.165 431.5,191.5 Z"/></g>
<g><path style="opacity:0.698" fill="#cfe9b3" d="M 419.5,192.5 C 420.675,192.281 421.675,192.614 422.5,193.5C 423.209,196.384 424.209,199.051 425.5,201.5C 425.715,207.029 426.882,212.362 429,217.5C 429.498,220.817 429.665,224.15 429.5,227.5C 429.5,228.833 429.5,230.167 429.5,231.5C 427.694,218.148 424.361,205.148 419.5,192.5 Z"/></g>
<g><path style="opacity:0.867" fill="#9cb6a5" d="M 119.5,195.5 C 119.5,198.167 119.5,200.833 119.5,203.5C 118.11,204.899 117.11,206.566 116.5,208.5C 116.167,208.5 115.833,208.5 115.5,208.5C 116.222,204.494 117.055,200.494 118,196.5C 118.383,195.944 118.883,195.611 119.5,195.5 Z"/></g>
<g><path style="opacity:0.004" fill="#ecf5ee" d="M 150.5,200.5 C 150.573,202.027 149.906,203.027 148.5,203.5C 148.427,201.973 149.094,200.973 150.5,200.5 Z"/></g>
<g><path style="opacity:0.22" fill="#cce1d9" d="M 402.5,203.5 C 404.304,202.838 406.304,202.505 408.5,202.5C 410.952,202.539 412.952,203.206 414.5,204.5C 410.6,203.57 406.6,203.237 402.5,203.5 Z"/></g>
<g><path style="opacity:0.843" fill="#c9eaad" d="M 435.5,200.5 C 437.065,202.509 438.065,204.843 438.5,207.5C 437.272,206.694 436.272,205.694 435.5,204.5C 435.5,203.167 435.5,201.833 435.5,200.5 Z"/></g>
<g><path style="opacity:0.114" fill="#c1d9d7" d="M 250.5,200.5 C 251.055,204.012 250.388,207.012 248.5,209.5C 249.088,206.39 249.755,203.39 250.5,200.5 Z"/></g>
<g><path style="opacity:0.942" fill="#83a69c" d="M 377.5,211.5 C 366.833,211.5 356.167,211.5 345.5,211.5C 341.958,211.813 338.625,211.479 335.5,210.5C 343.162,210.139 350.828,209.806 358.5,209.5C 365.065,209.361 371.399,210.028 377.5,211.5 Z"/></g>
<g><path style="opacity:0.667" fill="#e5f1be" d="M 438.5,207.5 C 440.097,209.848 441.097,212.514 441.5,215.5C 439.345,213.383 438.345,210.716 438.5,207.5 Z"/></g>
<g><path style="opacity:0.333" fill="#cfe5dc" d="M 192.5,210.5 C 192.027,211.906 191.027,212.573 189.5,212.5C 189.973,211.094 190.973,210.427 192.5,210.5 Z"/></g>
<g><path style="opacity:1" fill="#739d7d" d="M 255.5,150.5 C 254.21,161.556 254.21,172.39 255.5,183C 254.044,185.266 253.21,187.766 253,190.5C 252.225,197.038 252.391,203.538 253.5,210C 253.241,211.261 252.574,212.261 251.5,213C 253.286,213.196 254.619,214.029 255.5,215.5C 251.149,216.413 246.982,216.413 243,215.5C 242.333,214.833 241.667,214.167 241,213.5C 238.435,215.179 235.602,215.846 232.5,215.5C 232.5,214.5 232.5,213.5 232.5,212.5C 218.611,214.143 204.944,215.31 191.5,216C 190.268,218.641 188.602,220.807 186.5,222.5C 186.318,220.409 186.652,218.409 187.5,216.5C 189.482,215.784 191.149,214.617 192.5,213C 200.966,211.79 209.466,210.957 218,210.5C 227.827,211.35 237.66,211.517 247.5,211C 248.056,210.617 248.389,210.117 248.5,209.5C 250.388,207.012 251.055,204.012 250.5,200.5C 250.5,200.167 250.5,199.833 250.5,199.5C 251.578,184.672 252.412,169.672 253,154.5C 253.608,152.934 254.442,151.6 255.5,150.5 Z"/></g>
<g><path style="opacity:1" fill="#739e78" d="M 416.5,227.5 C 417.49,233.31 417.823,239.31 417.5,245.5C 414.751,257.201 412.251,269.201 410,281.5C 407.819,284.875 406.319,288.542 405.5,292.5C 405.5,293.167 405.5,293.833 405.5,294.5C 403.589,294.574 402.422,295.574 402,297.5C 400.906,295.922 400.072,294.255 399.5,292.5C 399.337,290.143 399.503,287.81 400,285.5C 400.741,284.359 401.575,284.359 402.5,285.5C 403.308,283.577 403.808,281.577 404,279.5C 404.667,278.167 405.667,277.167 407,276.5C 407.445,270.828 407.945,265.162 408.5,259.5C 407.775,247.512 407.275,235.512 407,223.5C 406.699,220.026 405.866,216.692 404.5,213.5C 406.533,211.548 406.866,209.382 405.5,207C 407.25,205.681 409.25,205.181 411.5,205.5C 413.312,212.373 414.479,219.373 415,226.5C 415.383,227.056 415.883,227.389 416.5,227.5 Z"/></g>
<g><path style="opacity:1" fill="#81a58d" d="M 402.5,203.5 C 406.6,203.237 410.6,203.57 414.5,204.5C 415.234,205.708 415.567,207.041 415.5,208.5C 415.653,214.845 415.986,221.178 416.5,227.5C 415.883,227.389 415.383,227.056 415,226.5C 414.479,219.373 413.312,212.373 411.5,205.5C 409.25,205.181 407.25,205.681 405.5,207C 406.866,209.382 406.533,211.548 404.5,213.5C 405.866,216.692 406.699,220.026 407,223.5C 407.275,235.512 407.775,247.512 408.5,259.5C 407.945,265.162 407.445,270.828 407,276.5C 405.667,277.167 404.667,278.167 404,279.5C 403.808,281.577 403.308,283.577 402.5,285.5C 401.575,284.359 400.741,284.359 400,285.5C 399.503,287.81 399.337,290.143 399.5,292.5C 397.281,295.597 394.614,298.263 391.5,300.5C 394.41,295.011 397.076,289.344 399.5,283.5C 400.674,282.486 401.34,281.153 401.5,279.5C 402.79,278.942 403.623,277.942 404,276.5C 406.644,264.462 407.144,252.462 405.5,240.5C 404.18,230.217 402.847,219.884 401.5,209.5C 401.505,207.304 401.838,205.304 402.5,203.5 Z"/></g>
<g><path style="opacity:0.804" fill="#a9dc81" d="M 435.5,204.5 C 436.272,205.694 437.272,206.694 438.5,207.5C 438.345,210.716 439.345,213.383 441.5,215.5C 441.5,215.833 441.5,216.167 441.5,216.5C 441.704,219.518 442.037,222.518 442.5,225.5C 442.167,225.5 441.833,225.5 441.5,225.5C 439.195,218.565 437.195,211.565 435.5,204.5 Z"/></g>
<g><path style="opacity:0.904" fill="#93b09c" d="M 146.5,209.5 C 143.666,219.827 141.332,230.161 139.5,240.5C 139.5,237.167 139.5,233.833 139.5,230.5C 140.552,226.348 141.386,222.015 142,217.5C 142.754,214.316 144.254,211.649 146.5,209.5 Z"/></g>
<g><path style="opacity:1" fill="#82a28b" d="M 115.5,208.5 C 115.833,208.5 116.167,208.5 116.5,208.5C 116.848,213.065 116.181,217.399 114.5,221.5C 114.782,224.131 115.449,226.631 116.5,229C 116.026,243.237 116.026,257.404 116.5,271.5C 116.167,271.5 115.833,271.5 115.5,271.5C 111.515,250.539 111.515,229.539 115.5,208.5 Z"/></g>
<g><path style="opacity:0.864" fill="#8baa98" d="M 248.5,209.5 C 248.389,210.117 248.056,210.617 247.5,211C 237.66,211.517 227.827,211.35 218,210.5C 209.466,210.957 200.966,211.79 192.5,213C 191.149,214.617 189.482,215.784 187.5,216.5C 186.652,218.409 186.318,220.409 186.5,222.5C 185.671,238.819 185.338,255.152 185.5,271.5C 185.5,272.5 185.5,273.5 185.5,274.5C 183.601,255.326 183.434,235.992 185,216.5C 185.748,214.249 187.248,212.916 189.5,212.5C 191.027,212.573 192.027,211.906 192.5,210.5C 207.784,208.41 223.117,208.41 238.5,210.5C 241.817,209.947 245.15,209.614 248.5,209.5 Z"/></g>
<g><path style="opacity:0.463" fill="#a6beb4" d="M 415.5,208.5 C 419.645,224.045 420.312,239.711 417.5,255.5C 417.5,252.167 417.5,248.833 417.5,245.5C 417.823,239.31 417.49,233.31 416.5,227.5C 415.986,221.178 415.653,214.845 415.5,208.5 Z"/></g>
<g><path style="opacity:0.667" fill="#cce7a0" d="M 441.5,216.5 C 443.593,221.878 444.927,227.545 445.5,233.5C 445.5,234.833 445.5,236.167 445.5,237.5C 443.385,233.888 442.385,229.888 442.5,225.5C 442.037,222.518 441.704,219.518 441.5,216.5 Z"/></g>
<g><path style="opacity:1" fill="#8aab95" d="M 345.5,211.5 C 356.167,211.5 366.833,211.5 377.5,211.5C 379.371,211.859 380.871,212.859 382,214.5C 386.585,235.138 386.585,255.804 382,276.5C 371.916,277.486 361.749,277.819 351.5,277.5C 349.5,277.5 347.5,277.5 345.5,277.5C 356.681,276.832 367.681,275.832 378.5,274.5C 379.259,271.843 379.926,269.177 380.5,266.5C 379.524,264.877 380.024,263.543 382,262.5C 382.667,249.167 382.667,235.833 382,222.5C 380.456,220.532 379.289,218.365 378.5,216C 374.833,215 371.167,214 367.5,213C 359.989,212.829 352.655,212.329 345.5,211.5 Z"/></g>
<g><path style="opacity:0.99" fill="#7fa588" d="M 139.5,230.5 C 139.5,233.833 139.5,237.167 139.5,240.5C 139.5,251.167 139.5,261.833 139.5,272.5C 139.5,274.833 139.5,277.167 139.5,279.5C 138.07,277.256 137.07,274.756 136.5,272C 138.026,267.548 137.693,263.215 135.5,259C 135.902,249.239 137.236,239.739 139.5,230.5 Z"/></g>
<g><path style="opacity:0.976" fill="#cfe19f" d="M 429.5,227.5 C 430.222,227.918 430.722,228.584 431,229.5C 431.667,240.5 431.667,251.5 431,262.5C 430.617,263.056 430.117,263.389 429.5,263.5C 429.5,259.833 429.5,256.167 429.5,252.5C 429.5,245.5 429.5,238.5 429.5,231.5C 429.5,230.167 429.5,228.833 429.5,227.5 Z"/></g>
<g><path style="opacity:1" fill="#6ec874" d="M 435.5,204.5 C 437.195,211.565 439.195,218.565 441.5,225.5C 443.821,240.692 444.821,256.026 444.5,271.5C 442.356,274.842 440.856,278.508 440,282.5C 439.781,281.062 439.281,279.729 438.5,278.5C 437.914,278.709 437.414,279.043 437,279.5C 436.7,286.093 434.7,292.093 431,297.5C 430.667,299.5 430.333,301.5 430,303.5C 425.37,307.513 424.204,312.18 426.5,317.5C 425.62,319.429 424.62,321.263 423.5,323C 425.961,324.597 426.127,326.43 424,328.5C 422.906,325.308 421.073,322.642 418.5,320.5C 419.222,318.056 420.222,315.722 421.5,313.5C 421.182,312.353 420.516,311.519 419.5,311C 421.223,310.477 422.556,309.477 423.5,308C 422.607,305.031 421.274,302.364 419.5,300C 421.229,298.211 421.896,296.044 421.5,293.5C 422.5,293.5 423.5,293.5 424.5,293.5C 424.5,291.5 424.5,289.5 424.5,287.5C 424.5,286.833 424.5,286.167 424.5,285.5C 428.087,279.65 430.587,273.317 432,266.5C 433.453,246.395 432.286,226.561 428.5,207C 429.572,201.293 431.905,200.46 435.5,204.5 Z"/></g>
<g><path style="opacity:1" fill="#95d177" d="M 441.5,225.5 C 441.833,225.5 442.167,225.5 442.5,225.5C 442.385,229.888 443.385,233.888 445.5,237.5C 445.612,244.175 445.945,250.842 446.5,257.5C 446.579,262.412 445.912,267.079 444.5,271.5C 444.821,256.026 443.821,240.692 441.5,225.5 Z"/></g>
<g><path style="opacity:0.993" fill="#7da58b" d="M 417.5,245.5 C 417.5,248.833 417.5,252.167 417.5,255.5C 416.739,265.444 414.739,275.11 411.5,284.5C 409.5,287.167 407.5,289.833 405.5,292.5C 406.319,288.542 407.819,284.875 410,281.5C 412.251,269.201 414.751,257.201 417.5,245.5 Z"/></g>
<g><path style="opacity:0.78" fill="#cbe7a1" d="M 159.5,285.5 C 157.36,283.3 155.86,280.633 155,277.5C 154.386,272.985 153.552,268.652 152.5,264.5C 152.693,260.987 152.026,257.654 150.5,254.5C 149.286,256.859 149.286,259.192 150.5,261.5C 150.538,270.846 150.871,280.18 151.5,289.5C 149.855,284.766 149.189,279.766 149.5,274.5C 149.313,269.155 148.98,263.822 148.5,258.5C 148.337,256.143 148.503,253.81 149,251.5C 151.09,250.209 152.424,250.876 153,253.5C 154.847,264.283 157.014,274.949 159.5,285.5 Z"/></g>
<g><path style="opacity:0.949" fill="#b3d35b" d="M 152.5,264.5 C 151.833,263.5 151.167,262.5 150.5,261.5C 149.286,259.192 149.286,256.859 150.5,254.5C 152.026,257.654 152.693,260.987 152.5,264.5 Z"/></g>
<g><path style="opacity:1" fill="#a6c1b5" d="M 405.5,240.5 C 407.144,252.462 406.644,264.462 404,276.5C 403.623,277.942 402.79,278.942 401.5,279.5C 402.669,273.165 403.835,266.831 405,260.5C 405.5,253.842 405.666,247.175 405.5,240.5 Z"/></g>
<g><path style="opacity:0.206" fill="#e9f9dc" d="M 148.5,258.5 C 148.98,263.822 149.313,269.155 149.5,274.5C 147.836,269.208 147.503,263.874 148.5,258.5 Z"/></g>
<g><path style="opacity:0.518" fill="#dcebc1" d="M 429.5,252.5 C 429.5,256.167 429.5,259.833 429.5,263.5C 429.084,266.583 428.417,269.583 427.5,272.5C 426.833,273.5 426.167,274.5 425.5,275.5C 427.377,267.799 428.71,260.133 429.5,252.5 Z"/></g>
<g><path style="opacity:1" fill="#85c973" d="M 423.5,179.5 C 424.5,180.167 425.5,180.833 426.5,181.5C 427.167,181.5 427.5,181.833 427.5,182.5C 426.774,186.26 428.107,188.927 431.5,190.5C 431.5,190.833 431.5,191.167 431.5,191.5C 431.502,195.165 432.835,198.165 435.5,200.5C 435.5,201.833 435.5,203.167 435.5,204.5C 431.905,200.46 429.572,201.293 428.5,207C 432.286,226.561 433.453,246.395 432,266.5C 430.587,273.317 428.087,279.65 424.5,285.5C 425.204,281.094 426.204,276.76 427.5,272.5C 428.417,269.583 429.084,266.583 429.5,263.5C 430.117,263.389 430.617,263.056 431,262.5C 431.667,251.5 431.667,240.5 431,229.5C 430.722,228.584 430.222,227.918 429.5,227.5C 429.665,224.15 429.498,220.817 429,217.5C 426.882,212.362 425.715,207.029 425.5,201.5C 427.663,199.391 429.33,196.891 430.5,194C 430.333,193.167 430.167,192.333 430,191.5C 425.484,188.795 423.317,184.795 423.5,179.5 Z"/></g>
<g><path style="opacity:0.29" fill="#cadbd5" d="M 115.5,271.5 C 115.833,271.5 116.167,271.5 116.5,271.5C 116.833,274.167 117.167,276.833 117.5,279.5C 115.96,277.162 115.294,274.495 115.5,271.5 Z"/></g>
<g><path style="opacity:1" fill="#83c970" d="M 150.5,261.5 C 151.167,262.5 151.833,263.5 152.5,264.5C 153.552,268.652 154.386,272.985 155,277.5C 155.86,280.633 157.36,283.3 159.5,285.5C 159.5,285.833 159.5,286.167 159.5,286.5C 158.908,289.631 159.908,291.964 162.5,293.5C 162.5,294.5 162.5,295.5 162.5,296.5C 160.983,296.489 159.816,295.823 159,294.5C 158.586,290.649 157.752,286.983 156.5,283.5C 155.167,283.5 153.833,283.5 152.5,283.5C 152.5,284.833 152.5,286.167 152.5,287.5C 153.5,287.5 154.5,287.5 155.5,287.5C 155.5,290.167 155.5,292.833 155.5,295.5C 154.167,293.5 152.833,291.5 151.5,289.5C 150.871,280.18 150.538,270.846 150.5,261.5 Z"/></g>
<g><path style="opacity:0.997" fill="#9db8a3" d="M 185.5,271.5 C 187.298,273.112 189.298,274.612 191.5,276C 210.275,278.381 228.941,277.881 247.5,274.5C 248.919,275.005 249.585,276.005 249.5,277.5C 249.5,293.167 249.5,308.833 249.5,324.5C 248.504,309.342 248.17,294.009 248.5,278.5C 231.846,279.52 215.179,279.687 198.5,279C 194.636,278.294 190.803,277.461 187,276.5C 185.97,276.164 185.47,275.497 185.5,274.5C 185.5,273.5 185.5,272.5 185.5,271.5 Z"/></g>
<g><path style="opacity:0.229" fill="#9bb9ab" d="M 319.5,277.5 C 328.167,277.5 336.833,277.5 345.5,277.5C 347.5,277.5 349.5,277.5 351.5,277.5C 340.932,278.188 330.265,278.855 319.5,279.5C 319.5,278.833 319.5,278.167 319.5,277.5 Z"/></g>
<g><path style="opacity:0.678" fill="#cbe4ab" d="M 427.5,272.5 C 426.204,276.76 425.204,281.094 424.5,285.5C 424.5,286.167 424.5,286.833 424.5,287.5C 422.903,288.737 421.737,290.404 421,292.5C 419.603,299.225 416.436,304.891 411.5,309.5C 417.37,298.718 422.037,287.385 425.5,275.5C 426.167,274.5 426.833,273.5 427.5,272.5 Z"/></g>
<g><path style="opacity:0.333" fill="#c7ddd1" d="M 401.5,279.5 C 401.34,281.153 400.674,282.486 399.5,283.5C 399.229,281.62 399.896,280.287 401.5,279.5 Z"/></g>
<g><path style="opacity:0.892" fill="#9ebaa8" d="M 139.5,272.5 C 140.581,275.627 141.247,278.96 141.5,282.5C 140.883,282.611 140.383,282.944 140,283.5C 139.51,282.207 139.343,280.873 139.5,279.5C 139.5,277.167 139.5,274.833 139.5,272.5 Z"/></g>
<g><path style="opacity:0.965" fill="#ddf1b9" d="M 445.5,233.5 C 447.987,248.987 448.154,264.654 446,280.5C 444.942,285.756 443.442,290.756 441.5,295.5C 441.5,294.167 441.5,292.833 441.5,291.5C 443.614,285.038 444.614,278.371 444.5,271.5C 445.912,267.079 446.579,262.412 446.5,257.5C 445.945,250.842 445.612,244.175 445.5,237.5C 445.5,236.167 445.5,234.833 445.5,233.5 Z"/></g>
<g><path style="opacity:0.792" fill="#cbe6ad" d="M 159.5,286.5 C 161.065,288.509 162.065,290.843 162.5,293.5C 159.908,291.964 158.908,289.631 159.5,286.5 Z"/></g>
<g><path style="opacity:0.937" fill="#88a893" d="M 116.5,271.5 C 117.649,271.791 118.316,272.624 118.5,274C 120.302,281.238 122.468,288.404 125,295.5C 125.497,298.146 125.664,300.813 125.5,303.5C 126.5,303.5 127.5,303.5 128.5,303.5C 128.704,306.518 129.037,309.518 129.5,312.5C 126.003,306.856 123.169,300.856 121,294.5C 119.316,289.616 118.149,284.616 117.5,279.5C 117.167,276.833 116.833,274.167 116.5,271.5 Z"/></g>
<g><path style="opacity:0.863" fill="#a0bdab" d="M 411.5,284.5 C 409.272,291.286 406.272,297.619 402.5,303.5C 402.517,300.116 403.517,297.116 405.5,294.5C 405.5,293.833 405.5,293.167 405.5,292.5C 407.5,289.833 409.5,287.167 411.5,284.5 Z"/></g>
<g><path style="opacity:0.882" fill="#bfe29f" d="M 162.5,293.5 C 164.684,297.369 166.684,301.369 168.5,305.5C 165.582,303.123 163.582,300.123 162.5,296.5C 162.5,295.5 162.5,294.5 162.5,293.5 Z"/></g>
<g><path style="opacity:0.999" fill="#94b59e" d="M 142.5,289.5 C 143.992,295.12 145.659,300.787 147.5,306.5C 146.069,305.22 145.402,303.553 145.5,301.5C 144.5,301.5 143.5,301.5 142.5,301.5C 142.5,297.5 142.5,293.5 142.5,289.5 Z"/></g>
<g><path style="opacity:0.671" fill="#c5e6ac" d="M 151.5,289.5 C 152.833,291.5 154.167,293.5 155.5,295.5C 155.5,298.167 155.5,300.833 155.5,303.5C 153.254,299.195 151.92,294.529 151.5,289.5 Z"/></g>
<g><path style="opacity:0.988" fill="#c3e8a2" d="M 441.5,291.5 C 441.5,292.833 441.5,294.167 441.5,295.5C 439.731,302.37 437.398,309.037 434.5,315.5C 433.094,315.973 432.427,316.973 432.5,318.5C 432.102,321.424 430.769,323.758 428.5,325.5C 432.855,314.092 437.188,302.759 441.5,291.5 Z"/></g>
<g><path style="opacity:1" fill="#75c974" d="M 444.5,271.5 C 444.614,278.371 443.614,285.038 441.5,291.5C 437.188,302.759 432.855,314.092 428.5,325.5C 428.5,325.833 428.5,326.167 428.5,326.5C 426.241,327.344 425.241,329.011 425.5,331.5C 423.824,332.183 423.157,333.517 423.5,335.5C 422.5,335.5 421.5,335.5 420.5,335.5C 420.5,336.833 420.5,338.167 420.5,339.5C 418.469,340.539 417.136,342.205 416.5,344.5C 413.82,346.513 411.487,348.846 409.5,351.5C 409.215,349.712 409.548,348.045 410.5,346.5C 411.747,344.956 413.08,343.456 414.5,342C 413.101,341.405 411.768,341.572 410.5,342.5C 409.713,341.758 409.047,340.925 408.5,340C 417.379,337.237 420.379,331.57 417.5,323C 414.549,323.399 411.549,323.899 408.5,324.5C 408.723,327.114 407.556,328.781 405,329.5C 404.439,331.725 403.439,333.725 402,335.5C 401.333,334.833 400.667,334.167 400,333.5C 399.29,334.973 398.124,335.64 396.5,335.5C 394.891,339.604 391.891,342.104 387.5,343C 383.855,347.151 379.522,350.318 374.5,352.5C 375.861,350.473 377.527,348.806 379.5,347.5C 380.5,346.167 381.5,344.833 382.5,343.5C 383.922,343.291 385.255,342.791 386.5,342C 389.574,339.151 392.574,336.317 395.5,333.5C 398.178,330.127 400.844,326.794 403.5,323.5C 404.496,323.586 405.329,323.252 406,322.5C 407.153,319.53 408.82,316.863 411,314.5C 411.494,312.866 411.66,311.199 411.5,309.5C 416.436,304.891 419.603,299.225 421,292.5C 421.737,290.404 422.903,288.737 424.5,287.5C 424.5,289.5 424.5,291.5 424.5,293.5C 423.5,293.5 422.5,293.5 421.5,293.5C 421.896,296.044 421.229,298.211 419.5,300C 421.274,302.364 422.607,305.031 423.5,308C 422.556,309.477 421.223,310.477 419.5,311C 420.516,311.519 421.182,312.353 421.5,313.5C 420.222,315.722 419.222,318.056 418.5,320.5C 421.073,322.642 422.906,325.308 424,328.5C 426.127,326.43 425.961,324.597 423.5,323C 424.62,321.263 425.62,319.429 426.5,317.5C 424.204,312.18 425.37,307.513 430,303.5C 430.333,301.5 430.667,299.5 431,297.5C 434.7,292.093 436.7,286.093 437,279.5C 437.414,279.043 437.914,278.709 438.5,278.5C 439.281,279.729 439.781,281.062 440,282.5C 440.856,278.508 442.356,274.842 444.5,271.5 Z"/></g>
<g><path style="opacity:0.6" fill="#d1eebf" d="M 155.5,303.5 C 157.074,305.102 157.741,307.102 157.5,309.5C 155.72,308.01 155.054,306.01 155.5,303.5 Z"/></g>
<g><path style="opacity:1" fill="#71c974" d="M 162.5,296.5 C 163.582,300.123 165.582,303.123 168.5,305.5C 168.427,307.027 169.094,308.027 170.5,308.5C 170.427,310.027 171.094,311.027 172.5,311.5C 173.362,315.901 175.696,319.234 179.5,321.5C 180.362,325.901 182.696,329.234 186.5,331.5C 189.589,337.767 194.255,342.767 200.5,346.5C 202.163,348.533 204.163,350.366 206.5,352C 207.448,352.483 208.448,352.649 209.5,352.5C 209.833,352.5 210.167,352.5 210.5,352.5C 211.527,355.858 213.86,357.525 217.5,357.5C 217.833,357.5 218.167,357.5 218.5,357.5C 218.5,358.167 218.5,358.833 218.5,359.5C 218.937,361.074 219.937,362.241 221.5,363C 226.945,364.888 231.945,367.555 236.5,371C 240.907,371.208 244.907,372.542 248.5,375C 256.118,376.35 263.784,377.184 271.5,377.5C 282.172,377.667 292.839,377.5 303.5,377C 307.179,376.974 310.512,376.14 313.5,374.5C 315.5,374.5 317.5,374.5 319.5,374.5C 319.423,375.75 318.756,376.583 317.5,377C 327.926,377.426 327.926,378.593 317.5,380.5C 312.948,379.014 308.281,378.348 303.5,378.5C 303.5,379.5 303.5,380.5 303.5,381.5C 292.163,381.833 280.997,381.833 270,381.5C 269.689,382.742 270.189,383.742 271.5,384.5C 266.839,385.426 262.506,386.426 258.5,387.5C 259.263,388.719 260.263,389.719 261.5,390.5C 260.855,391.646 260.022,392.646 259,393.5C 258.107,392.289 257.274,392.289 256.5,393.5C 259.107,394.318 261.774,394.818 264.5,395C 266.713,396.616 269.047,397.783 271.5,398.5C 266.729,398.462 262.062,397.796 257.5,396.5C 256.167,396.5 254.833,396.5 253.5,396.5C 253.209,395.351 252.376,394.684 251,394.5C 248.863,393.923 246.696,393.59 244.5,393.5C 244.167,393.5 243.833,393.5 243.5,393.5C 239.136,390.16 234.136,388.16 228.5,387.5C 228.144,386.13 227.31,385.13 226,384.5C 223.323,383.778 220.823,382.778 218.5,381.5C 215.256,378.385 211.589,376.052 207.5,374.5C 205.388,371.059 202.388,368.725 198.5,367.5C 198.027,366.094 197.027,365.427 195.5,365.5C 194.5,362.5 192.5,360.5 189.5,359.5C 185.557,353.391 181.057,347.724 176,342.5C 170.867,334.547 166.034,326.547 161.5,318.5C 160.657,315.141 159.323,312.141 157.5,309.5C 157.741,307.102 157.074,305.102 155.5,303.5C 155.5,300.833 155.5,298.167 155.5,295.5C 155.5,292.833 155.5,290.167 155.5,287.5C 154.5,287.5 153.5,287.5 152.5,287.5C 152.5,286.167 152.5,284.833 152.5,283.5C 153.833,283.5 155.167,283.5 156.5,283.5C 157.752,286.983 158.586,290.649 159,294.5C 159.816,295.823 160.983,296.489 162.5,296.5 Z"/></g>
<g><path style="opacity:0.176" fill="#e1f5c8" d="M 168.5,305.5 C 169.906,305.973 170.573,306.973 170.5,308.5C 169.094,308.027 168.427,307.027 168.5,305.5 Z"/></g>
<g><path style="opacity:0.525" fill="#def5c5" d="M 170.5,308.5 C 171.906,308.973 172.573,309.973 172.5,311.5C 171.094,311.027 170.427,310.027 170.5,308.5 Z"/></g>
<g><path style="opacity:0.778" fill="#cceab4" d="M 157.5,309.5 C 159.323,312.141 160.657,315.141 161.5,318.5C 159.026,316.102 157.692,313.102 157.5,309.5 Z"/></g>
<g><path style="opacity:0.118" fill="#c6dbd0" d="M 399.5,309.5 C 399.068,310.71 398.401,311.71 397.5,312.5C 397.285,310.821 397.952,309.821 399.5,309.5 Z"/></g>
<g><path style="opacity:0.899" fill="#8dad99" d="M 147.5,308.5 C 150.538,314.594 153.204,320.927 155.5,327.5C 154.504,327.586 153.671,327.252 153,326.5C 151.597,323.291 150.597,319.958 150,316.5C 147.797,314.331 146.964,311.665 147.5,308.5 Z"/></g>
<g><path style="opacity:1" fill="#89ab96" d="M 319.5,277.5 C 319.5,278.167 319.5,278.833 319.5,279.5C 318.716,298.809 318.216,318.143 318,337.5C 317.5,338.667 316.667,339.5 315.5,340C 310.882,340.994 306.215,341.494 301.5,341.5C 301.5,341.167 301.5,340.833 301.5,340.5C 305.803,339.394 310.136,338.394 314.5,337.5C 315.755,318.854 316.588,300.187 317,281.5C 317.122,279.563 317.955,278.23 319.5,277.5 Z"/></g>
<g><path style="opacity:0.996" fill="#b1dc99" d="M 411.5,309.5 C 411.66,311.199 411.494,312.866 411,314.5C 408.82,316.863 407.153,319.53 406,322.5C 405.329,323.252 404.496,323.586 403.5,323.5C 404.942,322.18 405.608,320.514 405.5,318.5C 407.265,315.291 409.265,312.291 411.5,309.5 Z"/></g>
<g><path style="opacity:0.843" fill="#c7e8ad" d="M 172.5,311.5 C 175.313,314.446 177.646,317.779 179.5,321.5C 175.696,319.234 173.362,315.901 172.5,311.5 Z"/></g>
<g><path style="opacity:0.852" fill="#99b5a4" d="M 385.5,309.5 C 384.926,315.312 381.926,319.312 376.5,321.5C 379.016,317.134 382.016,313.134 385.5,309.5 Z"/></g>
<g><path style="opacity:0.102" fill="#eaf5cc" d="M 434.5,315.5 C 434.573,317.027 433.906,318.027 432.5,318.5C 432.427,316.973 433.094,315.973 434.5,315.5 Z"/></g>
<g><path style="opacity:1" fill="#769f7d" d="M 399.5,292.5 C 400.072,294.255 400.906,295.922 402,297.5C 402.422,295.574 403.589,294.574 405.5,294.5C 403.517,297.116 402.517,300.116 402.5,303.5C 402.025,305.784 401.025,307.784 399.5,309.5C 397.952,309.821 397.285,310.821 397.5,312.5C 396.14,314.54 394.807,316.54 393.5,318.5C 392.603,317.402 391.77,317.402 391,318.5C 389.029,322.124 386.362,325.124 383,327.5C 382.517,328.448 382.351,329.448 382.5,330.5C 378.767,335.564 374.101,339.564 368.5,342.5C 367.791,341.596 366.791,341.263 365.5,341.5C 365.643,339.738 365.309,338.071 364.5,336.5C 365.325,335.614 366.325,335.281 367.5,335.5C 367.5,334.167 367.5,332.833 367.5,331.5C 370.108,327.888 373.108,324.555 376.5,321.5C 381.926,319.312 384.926,315.312 385.5,309.5C 387.265,306.291 389.265,303.291 391.5,300.5C 394.614,298.263 397.281,295.597 399.5,292.5 Z"/></g>
<g><path style="opacity:0.9" fill="#a3bcac" d="M 132.5,319.5 C 135.777,321.03 137.11,323.363 136.5,326.5C 134.412,324.664 133.079,322.331 132.5,319.5 Z"/></g>
<g><path style="opacity:0.761" fill="#9fb7a6" d="M 393.5,318.5 C 390.463,323.198 386.797,327.198 382.5,330.5C 382.351,329.448 382.517,328.448 383,327.5C 386.362,325.124 389.029,322.124 391,318.5C 391.77,317.402 392.603,317.402 393.5,318.5 Z"/></g>
<g><path style="opacity:0.404" fill="#cfe8b9" d="M 405.5,318.5 C 405.608,320.514 404.942,322.18 403.5,323.5C 400.844,326.794 398.178,330.127 395.5,333.5C 394.833,333.5 394.167,333.5 393.5,333.5C 397.476,328.519 401.476,323.519 405.5,318.5 Z"/></g>
<g><path style="opacity:0.506" fill="#c9e7ae" d="M 179.5,321.5 C 181.829,324.78 184.163,328.113 186.5,331.5C 182.696,329.234 180.362,325.901 179.5,321.5 Z"/></g>
<g><path style="opacity:0.667" fill="#c0e2a9" d="M 161.5,318.5 C 166.034,326.547 170.867,334.547 176,342.5C 181.057,347.724 185.557,353.391 189.5,359.5C 187.771,358.883 186.271,357.883 185,356.5C 177.831,347.485 171.165,338.151 165,328.5C 163.533,325.242 162.367,321.908 161.5,318.5 Z"/></g>
<g><path style="opacity:0.761" fill="#d7efc3" d="M 428.5,326.5 C 427.89,328.434 426.89,330.101 425.5,331.5C 425.241,329.011 426.241,327.344 428.5,326.5 Z"/></g>
<g><path style="opacity:0.431" fill="#dcf2c6" d="M 425.5,331.5 C 425.34,333.153 424.674,334.486 423.5,335.5C 423.157,333.517 423.824,332.183 425.5,331.5 Z"/></g>
<g><path style="opacity:0.78" fill="#d7edbb" d="M 423.5,335.5 C 422.974,337.23 421.974,338.564 420.5,339.5C 420.5,338.167 420.5,336.833 420.5,335.5C 421.5,335.5 422.5,335.5 423.5,335.5 Z"/></g>
<g><path style="opacity:0.882" fill="#c1e3a0" d="M 186.5,331.5 C 191.219,335.89 195.885,340.223 200.5,344.5C 200.5,345.167 200.5,345.833 200.5,346.5C 194.255,342.767 189.589,337.767 186.5,331.5 Z"/></g>
<g><path style="opacity:1" fill="#85a88e" d="M 141.5,334.5 C 142.5,334.5 143.5,334.5 144.5,334.5C 144.5,335.5 144.5,336.5 144.5,337.5C 145.552,337.351 146.552,337.517 147.5,338C 148.819,341.467 150.986,344.3 154,346.5C 154.579,347.928 154.412,349.262 153.5,350.5C 148.539,345.921 144.539,340.587 141.5,334.5 Z"/></g>
<g><path style="opacity:0.937" fill="#7ea288" d="M 249.5,277.5 C 250.756,277.461 251.756,277.961 252.5,279C 251.345,292.091 251.178,305.258 252,318.5C 252.436,325.665 253.602,332.665 255.5,339.5C 270.825,340.144 286.158,340.477 301.5,340.5C 301.5,340.833 301.5,341.167 301.5,341.5C 286.812,342.914 272.145,342.747 257.5,341C 254.702,339.866 252.536,338.032 251,335.5C 249.763,331.94 249.263,328.273 249.5,324.5C 249.5,308.833 249.5,293.167 249.5,277.5 Z"/></g>
<g><path style="opacity:0.808" fill="#b6daa0" d="M 393.5,333.5 C 394.167,333.5 394.833,333.5 395.5,333.5C 392.574,336.317 389.574,339.151 386.5,342C 385.255,342.791 383.922,343.291 382.5,343.5C 386.141,340.195 389.808,336.862 393.5,333.5 Z"/></g>
<g><path style="opacity:1" fill="#86aa90" d="M 367.5,331.5 C 367.5,332.833 367.5,334.167 367.5,335.5C 366.325,335.281 365.325,335.614 364.5,336.5C 365.309,338.071 365.643,339.738 365.5,341.5C 366.791,341.263 367.791,341.596 368.5,342.5C 359.974,350.432 349.974,355.765 338.5,358.5C 338.5,357.5 338.5,356.5 338.5,355.5C 340.857,355.663 343.19,355.497 345.5,355C 348.436,353.538 351.436,352.371 354.5,351.5C 354.351,350.448 354.517,349.448 355,348.5C 358.205,346.417 361.205,344.083 364,341.5C 364.432,340.4 363.932,339.733 362.5,339.5C 357.303,340.687 353.636,343.187 351.5,347C 348.846,347.941 346.179,348.774 343.5,349.5C 351.53,343.491 359.53,337.491 367.5,331.5 Z"/></g>
<g><path style="opacity:0.078" fill="#def3bd" d="M 420.5,339.5 C 419.876,341.754 418.543,343.421 416.5,344.5C 417.136,342.205 418.469,340.539 420.5,339.5 Z"/></g>
<g><path style="opacity:0.467" fill="#e0efcb" d="M 200.5,344.5 C 201.833,345.167 202.833,346.167 203.5,347.5C 202.391,347.443 201.391,347.11 200.5,346.5C 200.5,345.833 200.5,345.167 200.5,344.5 Z"/></g>
<g><path style="opacity:0.278" fill="#d6e7c1" d="M 382.5,343.5 C 381.5,344.833 380.5,346.167 379.5,347.5C 378.833,347.5 378.167,347.5 377.5,347.5C 378.585,345.413 380.251,344.08 382.5,343.5 Z"/></g>
<g><path style="opacity:1" fill="#749e7d" d="M 338.5,358.5 C 337.791,359.404 336.791,359.737 335.5,359.5C 332.103,360.192 328.77,360.192 325.5,359.5C 328.068,357.283 331.068,356.116 334.5,356C 335.337,354.989 335.67,353.822 335.5,352.5C 338.193,351.448 340.86,350.448 343.5,349.5C 346.179,348.774 348.846,347.941 351.5,347C 353.636,343.187 357.303,340.687 362.5,339.5C 363.932,339.733 364.432,340.4 364,341.5C 361.205,344.083 358.205,346.417 355,348.5C 354.517,349.448 354.351,350.448 354.5,351.5C 351.436,352.371 348.436,353.538 345.5,355C 343.19,355.497 340.857,355.663 338.5,355.5C 338.5,356.5 338.5,357.5 338.5,358.5 Z"/></g>
<g><path style="opacity:0.651" fill="#b5dc99" d="M 200.5,346.5 C 201.391,347.11 202.391,347.443 203.5,347.5C 205.909,348.701 207.909,350.367 209.5,352.5C 208.448,352.649 207.448,352.483 206.5,352C 204.163,350.366 202.163,348.533 200.5,346.5 Z"/></g>
<g><path style="opacity:1" fill="#c0e7ab" d="M 416.5,344.5 C 415.928,346.255 415.094,347.922 414,349.5C 411.323,352.343 408.49,355.01 405.5,357.5C 406.15,355.565 406.483,353.565 406.5,351.5C 407.5,351.5 408.5,351.5 409.5,351.5C 411.487,348.846 413.82,346.513 416.5,344.5 Z"/></g>
<g><path style="opacity:1" fill="#a3d390" d="M 377.5,347.5 C 378.167,347.5 378.833,347.5 379.5,347.5C 377.527,348.806 375.861,350.473 374.5,352.5C 372.112,355.076 369.112,356.076 365.5,355.5C 369.226,352.444 373.226,349.777 377.5,347.5 Z"/></g>
<g><path style="opacity:0.718" fill="#c2e4a5" d="M 210.5,352.5 C 213.135,353.811 215.469,355.478 217.5,357.5C 213.86,357.525 211.527,355.858 210.5,352.5 Z"/></g>
<g><path style="opacity:0.78" fill="#c4e1a7" d="M 365.5,355.5 C 365.218,356.778 364.551,357.778 363.5,358.5C 362.167,358.5 360.833,358.5 359.5,358.5C 361.181,356.992 363.181,355.992 365.5,355.5 Z"/></g>
<g><path style="opacity:0.996" fill="#8eac95" d="M 153.5,350.5 C 157.046,351.043 159.379,353.043 160.5,356.5C 164.566,357.598 166.566,360.265 166.5,364.5C 161.488,360.487 157.155,355.821 153.5,350.5 Z"/></g>
<g><path style="opacity:0.655" fill="#cde9ae" d="M 218.5,357.5 C 225.67,361.422 233.003,364.756 240.5,367.5C 232.526,366.51 225.193,363.843 218.5,359.5C 218.5,358.833 218.5,358.167 218.5,357.5 Z"/></g>
<g><path style="opacity:1" fill="#8bca75" d="M 359.5,358.5 C 360.833,358.5 362.167,358.5 363.5,358.5C 359.5,361.764 355.166,364.598 350.5,367C 348.527,367.495 346.527,367.662 344.5,367.5C 346.396,366.519 348.396,365.519 350.5,364.5C 351.298,364.043 351.631,363.376 351.5,362.5C 355.26,363.226 357.927,361.893 359.5,358.5 Z"/></g>
<g><path style="opacity:0.537" fill="#c9e9b0" d="M 189.5,359.5 C 192.5,360.5 194.5,362.5 195.5,365.5C 193.167,363.833 191.167,361.833 189.5,359.5 Z"/></g>
<g><path style="opacity:0.935" fill="#89aa95" d="M 335.5,352.5 C 335.67,353.822 335.337,354.989 334.5,356C 331.068,356.116 328.068,357.283 325.5,359.5C 328.77,360.192 332.103,360.192 335.5,359.5C 327.074,363.518 318.074,365.518 308.5,365.5C 309.209,364.596 310.209,364.263 311.5,364.5C 311.737,363.209 311.404,362.209 310.5,361.5C 318.793,358.667 327.127,355.667 335.5,352.5 Z"/></g>
<g><path style="opacity:0.761" fill="#c5e0aa" d="M 359.5,358.5 C 357.927,361.893 355.26,363.226 351.5,362.5C 354.035,360.983 356.702,359.65 359.5,358.5 Z"/></g>
<g><path style="opacity:1" fill="#83a88f" d="M 167.5,347.5 C 174.465,356.133 182.132,364.133 190.5,371.5C 188.735,372.461 186.735,372.795 184.5,372.5C 183.833,366.997 181,363.997 176,363.5C 175.506,361.866 175.34,360.199 175.5,358.5C 171.092,358.938 169.425,356.938 170.5,352.5C 169.5,352.5 168.5,352.5 167.5,352.5C 167.5,350.833 167.5,349.167 167.5,347.5 Z"/></g>
<g><path style="opacity:0.631" fill="#95acaf" d="M 310.5,361.5 C 311.404,362.209 311.737,363.209 311.5,364.5C 310.209,364.263 309.209,364.596 308.5,365.5C 307.903,366.139 307.07,366.472 306,366.5C 304.338,366.612 303.171,365.946 302.5,364.5C 304.745,362.377 307.412,361.377 310.5,361.5 Z"/></g>
<g><path style="opacity:1" fill="#b2dda2" d="M 403.5,359.5 C 401.1,362.903 398.1,365.57 394.5,367.5C 394.5,366.167 394.5,364.833 394.5,363.5C 397.588,363.803 399.254,362.47 399.5,359.5C 400.833,359.5 402.167,359.5 403.5,359.5 Z"/></g>
<g><path style="opacity:1" fill="#7fa287" d="M 180.5,375.5 C 175.498,372.517 171.165,368.85 167.5,364.5C 173.235,362.873 176.235,365.206 176.5,371.5C 178.331,370.948 179.997,370.948 181.5,371.5C 182.433,372.985 182.1,374.318 180.5,375.5 Z"/></g>
<g><path style="opacity:0.31" fill="#dff1cf" d="M 195.5,365.5 C 197.027,365.427 198.027,366.094 198.5,367.5C 196.973,367.573 195.973,366.906 195.5,365.5 Z"/></g>
<g><path style="opacity:0.553" fill="#c4dea7" d="M 351.5,362.5 C 351.631,363.376 351.298,364.043 350.5,364.5C 348.396,365.519 346.396,366.519 344.5,367.5C 338.663,369.443 332.663,370.776 326.5,371.5C 334.699,368.381 343.033,365.381 351.5,362.5 Z"/></g>
<g><path style="opacity:0.875" fill="#c0e4ae" d="M 198.5,367.5 C 202.388,368.725 205.388,371.059 207.5,374.5C 203.907,372.905 200.907,370.572 198.5,367.5 Z"/></g>
<g><path style="opacity:1" fill="#7fc76e" d="M 218.5,359.5 C 225.193,363.843 232.526,366.51 240.5,367.5C 240.833,367.5 241.167,367.5 241.5,367.5C 241.5,368.5 241.5,369.5 241.5,370.5C 243.167,370.5 244.833,370.5 246.5,370.5C 248.1,371.644 249.767,372.811 251.5,374C 258.387,374.706 265.053,375.872 271.5,377.5C 263.784,377.184 256.118,376.35 248.5,375C 244.907,372.542 240.907,371.208 236.5,371C 231.945,367.555 226.945,364.888 221.5,363C 219.937,362.241 218.937,361.074 218.5,359.5 Z"/></g>
<g><path style="opacity:0.188" fill="#ddefc2" d="M 241.5,367.5 C 246.386,368.747 251.053,370.414 255.5,372.5C 252.5,371.833 249.5,371.167 246.5,370.5C 244.833,370.5 243.167,370.5 241.5,370.5C 241.5,369.5 241.5,368.5 241.5,367.5 Z"/></g>
<g><path style="opacity:1" fill="#bfe4ac" d="M 394.5,367.5 C 389.364,373.615 383.031,378.281 375.5,381.5C 378.499,378.169 381.833,375.169 385.5,372.5C 387.842,371.329 390.176,370.162 392.5,369C 392.167,368.667 391.833,368.333 391.5,368C 392.448,367.517 393.448,367.351 394.5,367.5 Z"/></g>
<g><path style="opacity:0.851" fill="#c0e1a1" d="M 326.5,371.5 C 324.574,373.293 322.241,374.293 319.5,374.5C 317.5,374.5 315.5,374.5 313.5,374.5C 317.632,373.137 321.965,372.137 326.5,371.5 Z"/></g>
<g><path style="opacity:1" fill="#6ec875" d="M 409.5,351.5 C 408.5,351.5 407.5,351.5 406.5,351.5C 406.483,353.565 406.15,355.565 405.5,357.5C 405.167,358.5 404.5,359.167 403.5,359.5C 402.167,359.5 400.833,359.5 399.5,359.5C 399.254,362.47 397.588,363.803 394.5,363.5C 394.5,364.833 394.5,366.167 394.5,367.5C 393.448,367.351 392.448,367.517 391.5,368C 391.833,368.333 392.167,368.667 392.5,369C 390.176,370.162 387.842,371.329 385.5,372.5C 381.833,375.169 378.499,378.169 375.5,381.5C 372.635,381.965 369.968,382.965 367.5,384.5C 358.739,386.857 350.072,389.524 341.5,392.5C 339.307,392.136 337.473,391.136 336,389.5C 335.749,391.433 335.249,393.266 334.5,395C 313.703,399.402 292.703,400.568 271.5,398.5C 269.047,397.783 266.713,396.616 264.5,395C 261.774,394.818 259.107,394.318 256.5,393.5C 257.274,392.289 258.107,392.289 259,393.5C 260.022,392.646 260.855,391.646 261.5,390.5C 260.263,389.719 259.263,388.719 258.5,387.5C 262.506,386.426 266.839,385.426 271.5,384.5C 270.189,383.742 269.689,382.742 270,381.5C 280.997,381.833 292.163,381.833 303.5,381.5C 303.5,380.5 303.5,379.5 303.5,378.5C 308.281,378.348 312.948,379.014 317.5,380.5C 327.926,378.593 327.926,377.426 317.5,377C 318.756,376.583 319.423,375.75 319.5,374.5C 322.241,374.293 324.574,373.293 326.5,371.5C 332.663,370.776 338.663,369.443 344.5,367.5C 346.527,367.662 348.527,367.495 350.5,367C 355.166,364.598 359.5,361.764 363.5,358.5C 364.551,357.778 365.218,356.778 365.5,355.5C 369.112,356.076 372.112,355.076 374.5,352.5C 379.522,350.318 383.855,347.151 387.5,343C 391.891,342.104 394.891,339.604 396.5,335.5C 398.124,335.64 399.29,334.973 400,333.5C 400.667,334.167 401.333,334.833 402,335.5C 403.439,333.725 404.439,331.725 405,329.5C 407.556,328.781 408.723,327.114 408.5,324.5C 411.549,323.899 414.549,323.399 417.5,323C 420.379,331.57 417.379,337.237 408.5,340C 409.047,340.925 409.713,341.758 410.5,342.5C 411.768,341.572 413.101,341.405 414.5,342C 413.08,343.456 411.747,344.956 410.5,346.5C 409.548,348.045 409.215,349.712 409.5,351.5 Z"/></g>
<g><path style="opacity:0.506" fill="#c1e4ad" d="M 207.5,374.5 C 211.589,376.052 215.256,378.385 218.5,381.5C 214.053,380.385 210.387,378.052 207.5,374.5 Z"/></g>
<g><path style="opacity:0.824" fill="#b8da8e" d="M 246.5,370.5 C 249.5,371.167 252.5,371.833 255.5,372.5C 274.726,375.632 294.06,376.299 313.5,374.5C 310.512,376.14 307.179,376.974 303.5,377C 292.839,377.5 282.172,377.667 271.5,377.5C 265.053,375.872 258.387,374.706 251.5,374C 249.767,372.811 248.1,371.644 246.5,370.5 Z"/></g>
<g><path style="opacity:1" fill="#83a78d" d="M 191.5,372.5 C 197.083,375.747 202.083,379.747 206.5,384.5C 205.082,386.308 203.082,386.975 200.5,386.5C 198.716,386.107 197.05,385.441 195.5,384.5C 195.027,383.094 194.027,382.427 192.5,382.5C 187.835,381.172 183.835,378.839 180.5,375.5C 184.648,376.492 188.482,378.159 192,380.5C 193.5,380.333 194.333,379.5 194.5,378C 192.888,376.518 191.888,374.685 191.5,372.5 Z"/></g>
<g><path style="opacity:0.443" fill="#c4d8ce" d="M 192.5,382.5 C 194.027,382.427 195.027,383.094 195.5,384.5C 193.973,384.573 192.973,383.906 192.5,382.5 Z"/></g>
<g><path style="opacity:0.79" fill="#cce9b8" d="M 375.5,381.5 C 373.388,383.771 370.721,385.104 367.5,385.5C 367.5,385.167 367.5,384.833 367.5,384.5C 369.968,382.965 372.635,381.965 375.5,381.5 Z"/></g>
<g><path style="opacity:0.463" fill="#caecb0" d="M 218.5,381.5 C 220.823,382.778 223.323,383.778 226,384.5C 227.31,385.13 228.144,386.13 228.5,387.5C 226.002,386.088 223.336,384.921 220.5,384C 219.619,383.292 218.953,382.458 218.5,381.5 Z"/></g>
<g><path style="opacity:0.867" fill="#96b1ac" d="M 206.5,384.5 C 209.458,385.467 211.125,387.467 211.5,390.5C 207.46,390.109 203.793,388.776 200.5,386.5C 203.082,386.975 205.082,386.308 206.5,384.5 Z"/></g>
<g><path style="opacity:0.914" fill="#c9ebae" d="M 367.5,385.5 C 363.389,388.889 358.722,391.222 353.5,392.5C 353.414,391.504 353.748,390.671 354.5,390C 358.854,388.486 363.188,386.986 367.5,385.5 Z"/></g>
<g><path style="opacity:0.62" fill="#d6f0ba" d="M 228.5,387.5 C 234.136,388.16 239.136,390.16 243.5,393.5C 242.127,393.657 240.793,393.49 239.5,393C 235.659,391.31 231.993,389.477 228.5,387.5 Z"/></g>
<g><path style="opacity:0.686" fill="#d7efbd" d="M 353.5,392.5 C 351.698,393.458 349.698,394.125 347.5,394.5C 348.918,392.692 350.918,392.025 353.5,392.5 Z"/></g>
<g><path style="opacity:1" fill="#c6eca6" d="M 244.5,393.5 C 246.696,393.59 248.863,393.923 251,394.5C 252.376,394.684 253.209,395.351 253.5,396.5C 250.145,396.31 247.145,395.31 244.5,393.5 Z"/></g>
<g><path style="opacity:0.314" fill="#d2efb1" d="M 346.5,394.5 C 340.632,397.561 334.299,399.228 327.5,399.5C 333.491,396.962 339.824,395.295 346.5,394.5 Z"/></g>
<g><path style="opacity:0.416" fill="#ecf9d1" d="M 253.5,396.5 C 254.833,396.5 256.167,396.5 257.5,396.5C 259.5,397.5 261.5,398.5 263.5,399.5C 259.838,399.277 256.505,398.277 253.5,396.5 Z"/></g>
<g><path style="opacity:0.973" fill="#bbe595" d="M 257.5,396.5 C 262.062,397.796 266.729,398.462 271.5,398.5C 271.5,398.833 271.5,399.167 271.5,399.5C 269.5,399.5 267.5,399.5 265.5,399.5C 264.833,399.5 264.167,399.5 263.5,399.5C 261.5,398.5 259.5,397.5 257.5,396.5 Z"/></g>
<g><path style="opacity:1" fill="#84ca73" d="M 367.5,384.5 C 367.5,384.833 367.5,385.167 367.5,385.5C 363.188,386.986 358.854,388.486 354.5,390C 353.748,390.671 353.414,391.504 353.5,392.5C 350.918,392.025 348.918,392.692 347.5,394.5C 347.167,394.5 346.833,394.5 346.5,394.5C 339.824,395.295 333.491,396.962 327.5,399.5C 318.145,399.954 308.811,400.62 299.5,401.5C 290.132,401.23 280.799,400.563 271.5,399.5C 271.5,399.167 271.5,398.833 271.5,398.5C 292.703,400.568 313.703,399.402 334.5,395C 335.249,393.266 335.749,391.433 336,389.5C 337.473,391.136 339.307,392.136 341.5,392.5C 350.072,389.524 358.739,386.857 367.5,384.5 Z"/></g>
<g><path style="opacity:0.204" fill="#eefac0" d="M 265.5,399.5 C 267.5,399.5 269.5,399.5 271.5,399.5C 273.167,400.167 274.833,400.833 276.5,401.5C 272.575,401.57 268.909,400.903 265.5,399.5 Z"/></g>
<g><path style="opacity:0.648" fill="#d2ecab" d="M 271.5,399.5 C 280.799,400.563 290.132,401.23 299.5,401.5C 308.811,400.62 318.145,399.954 327.5,399.5C 325.123,400.887 322.457,401.721 319.5,402C 304.994,402.827 290.661,402.661 276.5,401.5C 274.833,400.833 273.167,400.167 271.5,399.5 Z"/></g>
</svg>
